<?xml version="1.0" encoding="UTF-8" standalone="no"?>
<svg width="57px" height="56px" viewBox="0 0 57 56" version="1.1" xmlns="http://www.w3.org/2000/svg" xmlns:xlink="http://www.w3.org/1999/xlink">
    <!-- Generator: sketchtool 40.3 (33839) - http://www.bohemiancoding.com/sketch -->
    <title>8A2F402C-88EF-4869-A8B4-532509124E06</title>
    <desc>Created with sketchtool.</desc>
    <defs></defs>
    <g id="Page-3" stroke="none" stroke-width="1" fill="none" fill-rule="evenodd">
        <g id="Landing-Page" transform="translate(-416.000000, -1077.000000)" fill="#F7D509">
            <g id="Bloc-2---Highlight" transform="translate(312.000000, 814.000000)">
                <g id="Clock" transform="translate(104.000000, 263.000000)">
                    <path d="M29,12 C18.5246414,12 10,20.3001402 10,30.4996242 C10,40.6998598 18.5246414,49 29,49 C39.4753586,49 48,40.6998598 48,30.4996242 C48,20.3001402 39.4753586,12 29,12 L29,12 Z M29.9047251,47.193857 L29.9047251,44.5955065 L28.0952749,44.5955065 L28.0952749,47.193857 C19.3382765,46.7481463 12.3158493,39.9069007 11.8542234,31.3805229 L14.5228538,31.3805229 L14.5228538,29.6194771 L11.8542234,29.6194771 C12.3127615,21.0930993 19.3382765,14.2548601 28.0952749,13.806143 L28.0952749,16.4044935 L29.9047251,16.4044935 L29.9047251,13.806143 C38.6617235,14.2548601 45.6841507,21.0961058 46.1457766,29.6194771 L43.4771462,29.6194771 L43.4771462,31.3805229 L46.1457766,31.3805229 C45.6841507,39.9069007 38.6617235,46.7481463 29.9047251,47.193857 L29.9047251,47.193857 Z" id="Fill-1"></path>
                    <path d="M54.1349005,2.86538827 C50.3146415,-0.952344788 44.0982664,-0.952344788 40.2780074,2.86538827 C39.9307112,3.21245491 39.9307112,3.77596355 40.2780074,4.12303019 L45.9479799,9.78925384 L42.6467655,13.0882856 C39.0134538,10.0922726 34.4119683,8.23239036 29.3925113,8.03341561 L29.3925113,5.33966205 L32.0644887,5.33966205 C32.5569351,5.33966205 32.9543879,4.942472 32.9543879,4.4495918 L32.9543879,0.890070249 C32.9543879,0.397190051 32.5569351,0 32.0644887,0 L24.9392157,0 C24.4467693,0 24.0493165,0.397190051 24.0493165,0.890070249 L24.0493165,4.4495918 C24.0493165,4.942472 24.4467693,5.33966205 24.9392157,5.33966205 L27.6111931,5.33966205 L27.6111931,8.03341561 C22.5917361,8.23239036 17.9902506,10.0953104 14.3569389,13.0882856 L11.0557245,9.78925384 L16.7226572,4.12606797 C17.0699534,3.77900133 17.0699534,3.21549269 16.7226572,2.86842605 C12.9023983,-0.949307006 6.68602308,-0.949307006 2.86576416,2.86842605 C-0.955254718,6.68691855 -0.955254718,12.8984242 2.86576416,16.7169167 C3.04055221,16.8915891 3.26625679,16.9774065 3.49500115,16.9774065 C3.72374552,16.9774065 3.95172994,16.8915891 4.12423815,16.7169167 L9.79117088,11.0537308 L13.0239899,14.2836529 C8.838196,18.3330169 6.22853435,23.9992406 6.22853435,30.2646668 C6.22853435,37.2067591 9.42563586,43.4129485 14.4253342,47.4980065 L11.6788819,50.1856845 C10.3489728,51.5147143 10.3489728,53.6768559 11.6788819,55.0036074 C12.3438364,55.6681223 13.2200565,56 14.0924769,56 C14.9626175,56 15.8350378,55.6711601 16.4969526,55.0089235 L20.5345567,51.0430985 C23.0127473,51.9893678 25.6968839,52.5141447 28.5018522,52.5141447 C31.547724,52.5141447 34.4507257,51.8974748 37.0983847,50.7879248 L41.3852518,55.0005696 C42.0502063,55.6650845 42.9233866,55.9969622 43.795807,55.9969622 C44.6682274,55.9969622 45.5414077,55.6650845 46.2063623,55.0005696 C47.5362714,53.6715398 47.5362714,51.5086387 46.2002827,50.1735333 L43.0480181,47.0886653 C47.7733752,43.0066451 50.7690905,36.9781659 50.7690905,30.261629 C50.7690905,23.9939244 48.1594288,18.3277008 43.9705951,14.2813746 L47.2034141,11.050693 L52.8703469,16.7138789 C53.0458949,16.8885514 53.2715994,16.9743687 53.5003438,16.9743687 C53.7283282,16.9743687 53.9570726,16.8885514 54.1295808,16.7138789 C57.9559193,12.8953864 57.9559193,6.68388077 54.1349005,2.86538827 L54.1349005,2.86538827 Z M25.8298748,1.7801405 L31.1738296,1.7801405 L31.1738296,3.55952155 L25.8298748,3.55952155 L25.8298748,1.7801405 Z M3.5337585,14.7909626 C1.01605056,11.6498956 1.21515696,7.03626353 4.13031774,4.12606797 C5.69429086,2.56312892 7.74615063,1.78241883 9.79725046,1.78241883 C11.5694494,1.78241883 13.3416482,2.36415417 14.8022684,3.52990317 L3.5337585,14.7909626 Z M15.2498778,53.7421682 C14.6153212,54.3770647 13.5817918,54.3770647 12.9464752,53.7421682 C12.3111587,53.1072717 12.3111587,52.0751851 12.9403957,51.4463642 L15.8737952,48.5749003 C16.7940923,49.2097968 17.7615062,49.7824188 18.7767968,50.2745396 L15.2498778,53.7421682 Z M44.9478883,51.4402886 C45.5832049,52.0751851 45.5832049,53.1072717 44.9478883,53.7421682 C44.3125717,54.3770647 43.2790423,54.3770647 42.6384061,53.7368521 L38.8113077,49.975318 C39.8030399,49.4558572 40.7499352,48.865768 41.6436341,48.2065692 L44.9478883,51.4402886 Z M48.9877722,30.261629 C48.9877722,41.5500285 39.7969603,50.7347636 28.5018522,50.7347636 C17.2067441,50.7347636 8.0159322,41.5500285 8.0159322,30.261629 C8.0159322,18.973989 17.2067441,9.78925384 28.5018522,9.78925384 C39.7969603,9.78925384 48.9877722,18.973989 48.9877722,30.261629 L48.9877722,30.261629 Z M53.4699459,14.7909626 L42.201436,3.52990317 C45.3453411,1.01461933 49.9612657,1.21283463 52.8733867,4.12303019 C55.7885474,7.03626353 55.9876538,11.6498956 53.4699459,14.7909626 L53.4699459,14.7909626 Z" id="Fill-2"></path>
                    <path d="M29.2032685,27.0702691 L29.2032685,18 L27.3387808,18 L27.3387808,27.0702691 C25.7351942,27.4693396 24.5420493,28.8588374 24.5420493,30.5215039 C24.5420493,31.4966704 24.9524911,32.3787458 25.6142888,33.0258047 L21,38.9271643 L22.4914311,40 L27.2298069,33.9376387 C27.5622966,34.0299667 27.9075132,34.0955882 28.2710247,34.0955882 C30.3280064,34.0955882 32,32.4916759 32,30.5184517 C32,28.8557852 30.8068552,27.4693396 29.2032685,27.0702691 L29.2032685,27.0702691 Z M28.2710247,32.30702 C27.2425338,32.30702 26.406537,31.5050638 26.406537,30.5184517 C26.406537,29.5326027 27.2425338,28.7306465 28.2710247,28.7306465 C29.2995155,28.7306465 30.1355123,29.5326027 30.1355123,30.5184517 C30.1355123,31.5050638 29.2995155,32.30702 28.2710247,32.30702 L28.2710247,32.30702 Z" id="Fill-3"></path>
                    <polygon id="Fill-4" points="31 38 33 38 33 36 31 36"></polygon>
                    <polygon id="Fill-5" points="35 38 37 38 37 36 35 36"></polygon>
                    <polygon id="Fill-6" points="31 42 33 42 33 40 31 40"></polygon>
                    <polygon id="Fill-7" points="35 42 37 42 37 40 35 40"></polygon>
                    <polygon id="Fill-8" points="38 38 40 38 40 36 38 36"></polygon>
                </g>
            </g>
        </g>
    </g>
</svg>