<?xml version="1.0" encoding="UTF-8" standalone="no"?>
<svg
   xmlns:dc="http://purl.org/dc/elements/1.1/"
   xmlns:cc="http://creativecommons.org/ns#"
   xmlns:rdf="http://www.w3.org/1999/02/22-rdf-syntax-ns#"
   xmlns:svg="http://www.w3.org/2000/svg"
   xmlns="http://www.w3.org/2000/svg"
   xmlns:sodipodi="http://sodipodi.sourceforge.net/DTD/sodipodi-0.dtd"
   xmlns:inkscape="http://www.inkscape.org/namespaces/inkscape"
   width="23.5625"
   height="17.300619"
   viewBox="0 0 23.5625 17.300619"
   version="1.1"
   id="svg2"
   inkscape:version="0.91 r13725"
   sodipodi:docname="snoozit-icon-vmarm.svg">
  <metadata
     id="metadata19">
    <rdf:RDF>
      <cc:Work
         rdf:about="">
        <dc:format>image/svg+xml</dc:format>
        <dc:type
           rdf:resource="http://purl.org/dc/dcmitype/StillImage" />
        <dc:title>95BEFBFE-2D45-487A-B431-6FF640898ED8</dc:title>
      </cc:Work>
    </rdf:RDF>
  </metadata>
  <sodipodi:namedview
     pagecolor="#ffffff"
     bordercolor="#666666"
     borderopacity="1"
     objecttolerance="10"
     gridtolerance="10"
     guidetolerance="10"
     inkscape:pageopacity="0"
     inkscape:pageshadow="2"
     inkscape:window-width="1843"
     inkscape:window-height="1057"
     id="namedview17"
     showgrid="false"
     fit-margin-top="0"
     fit-margin-left="0"
     fit-margin-right="0"
     fit-margin-bottom="0"
     inkscape:zoom="3.3103448"
     inkscape:cx="-0.87604167"
     inkscape:cy="-15.880631"
     inkscape:window-x="-8"
     inkscape:window-y="-8"
     inkscape:window-maximized="1"
     inkscape:current-layer="svg2" />
  <!-- Generator: sketchtool 40.3 (33839) - http://www.bohemiancoding.com/sketch -->
  <title
     id="title4">95BEFBFE-2D45-487A-B431-6FF640898ED8</title>
  <desc
     id="desc6">Created with sketchtool.</desc>
  <defs
     id="defs8" />
  <g
     id="Page-3"
     style="fill:none;fill-rule:evenodd;stroke:none;stroke-width:1"
     transform="translate(0.18125,0.68125)">
    <g
       id="Landing-Page"
       transform="translate(-572,-3346)">
      <g
         id="ARM-turquoise"
         transform="translate(572,3345)">
        <path
           d="M 22.627397,0.6 11.6,0.6 0.57260274,0.6 C 0.31172603,0.6 0.1,0.81172603 0.1,1.0726027 l 0,11.8545573 c 0,0.260877 0.21172603,0.472603 0.47260274,0.472603 l 10.23972626,0 0,2.99315 -3.4657537,0 c -0.2608767,0 -0.4726027,0.211726 -0.4726027,0.472603 0,0.260877 0.211726,0.472603 0.4726027,0.472603 l 4.2534247,0 4.253425,0 c 0.260876,0 0.472602,-0.211726 0.472602,-0.472603 0,-0.260877 -0.211726,-0.472603 -0.472602,-0.472603 l -3.465754,0 0,-2.99315 10.239726,0 c 0.260877,0 0.472603,-0.211726 0.472603,-0.472603 l 0,-11.8545573 C 23.1,0.81172603 22.888274,0.6 22.627397,0.6 l 0,0 z m -0.236091,11.665936 c 0,0.234411 -0.197023,0.424712 -0.441516,0.424712 l -11.122758,0 -9.5751416,0 c -0.2444931,0 -0.44151597,-0.190301 -0.44151597,-0.424712 l 0,-10.6518355 c 0,-0.2348311 0.19702287,-0.4251325 0.44151597,-0.4251325 l 10.3119816,0 0.07394,0 10.311982,0 c 0.244493,0 0.441516,0.1903014 0.441516,0.4251325 l 0,10.6518355 0,0 z"
           id="Fill-1"
           inkscape:connector-curvature="0"
           style="fill:#01a9bd;fill-rule:evenodd" />
        <path
           d="M 22.627397,0.6 11.6,0.6 0.57260274,0.6 C 0.31172603,0.6 0.1,0.81172603 0.1,1.0726027 l 0,11.8545573 c 0,0.260877 0.21172603,0.472603 0.47260274,0.472603 l 10.23972626,0 0,2.99315 -3.4657537,0 c -0.2608767,0 -0.4726027,0.211726 -0.4726027,0.472603 0,0.260877 0.211726,0.472603 0.4726027,0.472603 l 4.2534247,0 4.253425,0 c 0.260876,0 0.472602,-0.211726 0.472602,-0.472603 0,-0.260877 -0.211726,-0.472603 -0.472602,-0.472603 l -3.465754,0 0,-2.99315 10.239726,0 c 0.260877,0 0.472603,-0.211726 0.472603,-0.472603 l 0,-11.8545573 C 23.1,0.81172603 22.888274,0.6 22.627397,0.6 l 0,0 z"
           id="Stroke-2"
           inkscape:connector-curvature="0"
           style="stroke:#01a9bd;stroke-width:0.5625;stroke-linecap:round;stroke-linejoin:round" />
        <path
           d="m 22.391306,12.265936 c 0,0.234411 -0.197023,0.424712 -0.441516,0.424712 l -11.122758,0 -9.5751416,0 c -0.2444931,0 -0.44151597,-0.190301 -0.44151597,-0.424712 l 0,-10.6518355 c 0,-0.2348311 0.19702287,-0.4251325 0.44151597,-0.4251325 l 10.3119816,0 0.07394,0 10.311982,0 c 0.244493,0 0.441516,0.1903014 0.441516,0.4251325 l 0,10.6518355 0,0 z"
           id="Path"
           inkscape:connector-curvature="0"
           style="fill:#01a9bd;fill-rule:evenodd;stroke:#01a9bd;stroke-width:0.5625;stroke-linecap:round;stroke-linejoin:round" />
        <path
           d="M 14.569848,4.6400246 11.930152,3.115424 C 11.796805,3.0387136 11.648402,3 11.5,3 11.351598,3 11.202622,3.0387136 11.069848,3.115424 L 8.4301516,4.6400246 C 8.1640311,4.7934453 8,5.0774887 8,5.3849037 l 0,3.0486276 c 0,0.307415 0.1640311,0.5914585 0.4301516,0.7448792 l 2.6396964,1.5240275 c 0.133347,0.07671 0.28175,0.115423 0.430152,0.115423 0.148402,0 0.296805,-0.03871 0.430152,-0.115423 L 14.569848,9.1784105 C 14.835969,9.0244162 15,8.7409463 15,8.4335313 L 15,5.3849037 C 15,5.0774887 14.835969,4.7934453 14.569848,4.6400246 l 0,0 z M 11.5,3.8603032 13.709545,5.1362761 11.5,6.4121057 9.2904547,5.1362761 11.5,3.8603032 Z m -2.6396968,4.5732281 0,-2.5518025 2.2095448,1.2758296 0,2.5518025 -2.2095448,-1.2758296 z m 3.0698488,1.2752561 0,-2.551229 2.209545,-1.2758296 0,2.5518025 -2.209545,1.2752561 z"
           id="Page-1"
           inkscape:connector-curvature="0"
           style="fill:#ffffff;fill-rule:evenodd" />
      </g>
    </g>
  </g>
</svg>
