<?xml version="1.0" encoding="UTF-8" standalone="no"?>
<!-- Created with Inkscape (http://www.inkscape.org/) -->

<svg
   xmlns:dc="http://purl.org/dc/elements/1.1/"
   xmlns:cc="http://creativecommons.org/ns#"
   xmlns:rdf="http://www.w3.org/1999/02/22-rdf-syntax-ns#"
   xmlns:svg="http://www.w3.org/2000/svg"
   xmlns="http://www.w3.org/2000/svg"
   xmlns:sodipodi="http://sodipodi.sourceforge.net/DTD/sodipodi-0.dtd"
   xmlns:inkscape="http://www.inkscape.org/namespaces/inkscape"
   id="svg3351"
   version="1.1"
   inkscape:version="0.91 r13725"
   width="1594.1953"
   height="684.24225"
   viewBox="0 0 1594.1953 684.24225"
   sodipodi:docname="backdrop.svg">
  <metadata
     id="metadata3357">
    <rdf:RDF>
      <cc:Work
         rdf:about="">
        <dc:format>image/svg+xml</dc:format>
        <dc:type
           rdf:resource="http://purl.org/dc/dcmitype/StillImage" />
        <dc:title />
      </cc:Work>
    </rdf:RDF>
  </metadata>
  <defs
     id="defs3355" />
  <sodipodi:namedview
     pagecolor="#ffffff"
     bordercolor="#666666"
     borderopacity="1"
     objecttolerance="10"
     gridtolerance="10"
     guidetolerance="10"
     inkscape:pageopacity="0"
     inkscape:pageshadow="2"
     inkscape:window-width="1843"
     inkscape:window-height="1057"
     id="namedview3353"
     showgrid="false"
     fit-margin-top="0"
     fit-margin-left="0"
     fit-margin-right="0"
     fit-margin-bottom="0"
     inkscape:zoom="0.56266667"
     inkscape:cx="838.77205"
     inkscape:cy="23.752546"
     inkscape:window-x="-8"
     inkscape:window-y="-8"
     inkscape:window-maximized="1"
     inkscape:current-layer="svg3351" />
  <path
     style="fill:#2b446c;fill-opacity:1;stroke:none"
     d="m 0,0 0,155.3809 c 16.5044,-2.976 78.99401,-13.7943 112.97658,-13.2734 122.6493,1.8798 233.80529,63.8795 355.05859,90.8867 120.963,26.9426 219.34211,-36.4136 343.13281,-32.0059 121.9356,4.3417 227.83162,42.6731 338.08592,66.9278 64.9457,14.2874 187.3205,3.4361 284.1055,6.2578 79.4182,2.3154 141.5327,13.3631 160.8359,17.1562 L 1594.1953,0 0,0 Z m 1067.709,340.4473 c -40.891,0.2651 -71.44737,8.4513 -82.07617,13.2344 -143.247,64.4629 37.32297,72.7844 67.53517,73.6191 122.1403,3.3746 193.8378,-0.087 391.7344,-4.7871 40.6934,-0.9664 146.1906,4.571 149.2929,4.7344 l 0,-67.6758 c -0.2218,-3.061 -0.4688,-6.2176 -0.7441,-9.4824 -21.6286,-5.8491 -64.6461,-10.482 -116.2344,-4.6153 -51.7168,5.8814 -112.0554,22.2696 -175.2344,22.4727 -73.1873,0.2353 -145.7665,-21.0908 -204.4316,-26.2793 -10.4192,-0.9215 -20.4054,-1.2819 -29.8418,-1.2207 z m -418.24414,87.4141 c -49.91603,0.1053 -115.52063,7.6687 -205.95117,32.2968 C 181.18009,531.603 31.5086,480.7362 0,467.8204 l 0,216.42182 1193.5078,0 c 31.4516,-12.35388 113.6383,-42.68013 193.8067,-55.69921 94.9533,-15.42012 193.7834,-16.61584 206.8808,-16.70899 l 0,-116.60542 c -17.4284,-1.6912 -153.0848,-14.1321 -255.1836,-1.5254 -94.5755,11.6777 -172.8191,34.9004 -284.0918,31.875 -33.494,-0.9106 -90.62317,3.8122 -193.75778,-50.4336 -27.6219,-14.5283 -60.48409,-27.3342 -109.93359,-36.7383 -25.89103,-4.9239 -57.72011,-10.6379 -101.76367,-10.5449 z"
     id="rect3428"
     inkscape:connector-curvature="0" />
</svg>
