<?xml version="1.0" encoding="UTF-8" standalone="no"?>
<svg width="21px" height="18px" viewBox="0 0 21 18" version="1.1" xmlns="http://www.w3.org/2000/svg" xmlns:xlink="http://www.w3.org/1999/xlink">
    <!-- Generator: sketchtool 40.3 (33839) - http://www.bohemiancoding.com/sketch -->
    <title>D76317CC-4868-43D8-B18D-AEDE5C12CE1F</title>
    <desc>Created with sketchtool.</desc>
    <defs></defs>
    <g id="Page-3" stroke="none" stroke-width="1" fill="none" fill-rule="evenodd">
        <g id="Landing-Page" transform="translate(-1010.000000, -509.000000)" fill="#253C5E">
            <path d="M1030.72949,517.347975 L1023.03718,509.295129 C1022.67949,508.930067 1022.09551,508.88775 1021.67756,509.257865 C1021.30449,509.591348 1021.29423,510.23747 1021.63974,510.59748 L1027.81474,517.051757 L1010.96154,517.051757 C1010.43077,517.051757 1010,517.476189 1010,517.99915 C1010,518.522112 1010.43077,518.946544 1010.96154,518.946544 L1027.81474,518.946544 L1021.63974,525.400821 C1021.29423,525.76083 1021.31923,526.392426 1021.67756,526.740435 C1022.05577,527.108024 1022.68397,527.075813 1023.03718,526.703171 L1030.72949,518.650325 C1030.95513,518.431162 1030.99744,518.221472 1031,517.99915 C1031,517.779355 1030.86474,517.488189 1030.72949,517.347975 Z" id="Page-1"></path>
        </g>
    </g>
</svg>