<?xml version="1.0" encoding="UTF-8" standalone="no"?>
<!-- Created with Inkscape (http://www.inkscape.org/) -->

<svg
   xmlns:dc="http://purl.org/dc/elements/1.1/"
   xmlns:cc="http://creativecommons.org/ns#"
   xmlns:rdf="http://www.w3.org/1999/02/22-rdf-syntax-ns#"
   xmlns:svg="http://www.w3.org/2000/svg"
   xmlns="http://www.w3.org/2000/svg"
   xmlns:sodipodi="http://sodipodi.sourceforge.net/DTD/sodipodi-0.dtd"
   xmlns:inkscape="http://www.inkscape.org/namespaces/inkscape"
   width="209.34967mm"
   height="284.37225mm"
   viewBox="0 0 741.79018 1007.6182"
   id="svg2"
   version="1.1"
   inkscape:version="0.91 r13725"
   sodipodi:docname="snoozit-moon-black.svg">
  <defs
     id="defs4">
    <clipPath
       id="clipPath3354"
       clipPathUnits="userSpaceOnUse">
      <path
         inkscape:connector-curvature="0"
         id="path3356"
         d="m 0,1024 1024,0 L 1024,0 0,0 0,1024 Z" />
    </clipPath>
  </defs>
  <sodipodi:namedview
     id="base"
     pagecolor="#ffffff"
     bordercolor="#666666"
     borderopacity="1.0"
     inkscape:pageopacity="0.0"
     inkscape:pageshadow="2"
     inkscape:zoom="0.35"
     inkscape:cx="1555.2813"
     inkscape:cy="100.88019"
     inkscape:document-units="px"
     inkscape:current-layer="layer1"
     showgrid="false"
     inkscape:window-width="1920"
     inkscape:window-height="1027"
     inkscape:window-x="3832"
     inkscape:window-y="-8"
     inkscape:window-maximized="1"
     fit-margin-top="0"
     fit-margin-left="0"
     fit-margin-right="0"
     fit-margin-bottom="0" />
  <metadata
     id="metadata7">
    <rdf:RDF>
      <cc:Work
         rdf:about="">
        <dc:format>image/svg+xml</dc:format>
        <dc:type
           rdf:resource="http://purl.org/dc/dcmitype/StillImage" />
        <dc:title></dc:title>
      </cc:Work>
    </rdf:RDF>
  </metadata>
  <g
     inkscape:label="Layer 1"
     inkscape:groupmode="layer"
     id="layer1"
     transform="translate(1607.4243,116.11844)">
    <path
       d="m -1230.8738,865.2904 -11.3125,0 0,-257.6775 11.3125,0 0,257.6775 z"
       style="fill:#1a1a1a;fill-opacity:1;fill-rule:nonzero;stroke:none"
       id="path3381"
       inkscape:connector-curvature="0" />
    <path
       d="m -1210.3191,865.28984 c 0,14.475 -11.7351,26.21004 -26.2101,26.21004 -14.4749,0 -26.2112,-11.73504 -26.2112,-26.21004 0,-14.475 11.7363,-26.21126 26.2112,-26.21126 14.475,0 26.2101,11.73626 26.2101,26.21126"
       style="fill:#1a1a1a;fill-opacity:1;fill-rule:nonzero;stroke:none"
       id="path3389"
       inkscape:connector-curvature="0" />
    <path
       d="m -883.44314,478.12783 c -25.70376,5.8175 -52.47375,8.7025 -79.99625,8.29125 -183.29131,-2.5675 -330.98751,-151.41126 -328.60751,-331.13501 1.3162,-98.868749 47.2825,-186.877507 118.7737,-245.88251 9.9525,-8.245 4.5338,-24.2425 -8.4562,-24.9225 -7.2838,-0.41 -14.6288,-0.5975 -22.0088,-0.5975 -222.955,0 -403.6862,177.201261 -403.6862,395.82752 0,218.48625 181.8925,396.38001 404.715,395.82876 139.4675,-0.31625 262.30751,-70.0525 334.58876,-175.78376 7.28375,-10.6725 -2.52375,-24.51125 -15.3225,-21.62625"
       style="fill:#f7d50a;fill-opacity:1;fill-rule:nonzero;stroke:none"
       id="path3393"
       inkscape:connector-curvature="0" />
  </g>
</svg>
