<?xml version="1.0" encoding="UTF-8" standalone="no"?>
<svg
   xmlns:dc="http://purl.org/dc/elements/1.1/"
   xmlns:cc="http://creativecommons.org/ns#"
   xmlns:rdf="http://www.w3.org/1999/02/22-rdf-syntax-ns#"
   xmlns:svg="http://www.w3.org/2000/svg"
   xmlns="http://www.w3.org/2000/svg"
   xmlns:sodipodi="http://sodipodi.sourceforge.net/DTD/sodipodi-0.dtd"
   xmlns:inkscape="http://www.inkscape.org/namespaces/inkscape"
   width="22.716797"
   height="15.32063"
   viewBox="0 0 22.716797 15.32063"
   version="1.1"
   id="svg2"
   inkscape:version="0.91 r13725"
   sodipodi:docname="snoozit-icon-vmcloud-white.svg">
  <metadata
     id="metadata18">
    <rdf:RDF>
      <cc:Work
         rdf:about="">
        <dc:format>image/svg+xml</dc:format>
        <dc:type
           rdf:resource="http://purl.org/dc/dcmitype/StillImage" />
        <dc:title>81BD3471-3871-4252-BA2F-2870DB5EB07A</dc:title>
      </cc:Work>
    </rdf:RDF>
  </metadata>
  <sodipodi:namedview
     pagecolor="#ffffff"
     bordercolor="#666666"
     borderopacity="1"
     objecttolerance="10"
     gridtolerance="10"
     guidetolerance="10"
     inkscape:pageopacity="0"
     inkscape:pageshadow="2"
     inkscape:window-width="686"
     inkscape:window-height="480"
     id="namedview16"
     showgrid="false"
     fit-margin-top="0"
     fit-margin-left="0"
     fit-margin-right="0"
     fit-margin-bottom="0"
     inkscape:zoom="3.2359551"
     inkscape:cx="-1.0815966"
     inkscape:cy="-15.17937"
     inkscape:window-x="0"
     inkscape:window-y="0"
     inkscape:window-maximized="0"
     inkscape:current-layer="svg2" />
  <!-- Generator: sketchtool 40.3 (33839) - http://www.bohemiancoding.com/sketch -->
  <title
     id="title4">81BD3471-3871-4252-BA2F-2870DB5EB07A</title>
  <desc
     id="desc6">Created with sketchtool.</desc>
  <defs
     id="defs8" />
  <g
     id="Page-3"
     style="fill:#ffffff;fill-rule:evenodd;stroke:none;stroke-width:1">
    <g
       id="Landing-Page"
       transform="translate(-815,-3343)"
       style="fill:#ffffff">
      <g
         id="Cloud-Turquoise"
         transform="translate(815,3343)"
         style="fill:#ffffff">
        <path
           d="M 9.245208,0 C 5.9680019,0 3.5920715,2.6580413 3.4173811,5.5636781 1.4334475,6.2349683 0,8.0977456 0,10.301803 c 0,2.765462 2.2533654,5.018828 5.0188272,5.018828 l 12.6791428,0 c 2.916555,0 5.018827,-2.001896 5.018827,-4.49053 0,-1.9578711 -1.279537,-3.8534029 -3.219446,-4.3831093 C 19.370912,4.9184507 18.621082,3.7392904 17.573996,3.1120251 16.564243,2.506596 15.324857,2.4005843 14.206275,2.7982163 13.254282,1.2383296 11.512661,0 9.245208,0 l 0,0 z m 0,1.0565952 c 2.051204,0 3.574109,1.1900784 4.284141,2.6083814 0.129257,0.26274 0.447292,0.3701605 0.710032,0.2394949 0.891415,-0.4458832 1.953645,-0.3948144 2.790116,0.1074205 0.836471,0.5018827 1.460919,1.4320387 1.460919,2.8559768 0,0.2560483 0.1842,0.4761723 0.43743,0.5201971 1.587711,0.2666141 2.732356,1.8500982 2.732356,3.4420351 0,1.911028 -1.507762,3.433934 -3.962232,3.433934 l -12.6791428,0 c -2.194196,0 -3.962232,-1.768036 -3.962232,-3.962232 0,-1.8571419 1.2724928,-3.4036451 2.9880512,-3.8382579 C 4.2813238,6.4029669 4.445096,6.1867171 4.4408696,5.943348 4.4176245,3.4642235 6.4205768,1.0565952 9.245208,1.0565952 l 0,0 z"
           id="Page-1"
           inkscape:connector-curvature="0"
           style="fill:#ffffff" />
        <path
           d="m 14.076842,8.158772 -0.602339,0 C 13.396715,7.7932381 13.248711,7.4511094 13.052521,7.1447768 L 13.48001,6.717288 c 0.255392,-0.2553919 0.255392,-0.6698013 0,-0.9224396 -0.255392,-0.2553919 -0.669802,-0.2553919 -0.92244,0 L 12.130081,6.2223372 C 11.823749,6.0261467 11.48162,5.8808968 11.116086,5.8003555 l 0,-0.6023393 c 0,-0.3600269 -0.293253,-0.65328 -0.65328,-0.65328 -0.360027,0 -0.6532801,0.2932531 -0.6532801,0.65328 l 0,0.6023393 C 9.443992,5.8808968 9.1018633,6.0261467 8.7955307,6.2223372 L 8.3680419,5.7948484 c -0.2553919,-0.2553919 -0.6698013,-0.2553919 -0.9224396,0 -0.2553919,0.2553918 -0.2553919,0.6698013 0,0.9224396 L 7.8730911,7.1447768 C 7.674147,7.4511094 7.5316507,7.7932381 7.4511094,8.158772 l -0.6023393,0 c -0.3600269,0 -0.65328,0.2932532 -0.65328,0.65328 0,0.3600268 0.2932531,0.65328 0.65328,0.65328 l 0.6023393,0 c 0.080541,0.3655339 0.2257912,0.707663 0.4219817,1.013995 l -0.4274888,0.427489 c -0.2553919,0.255392 -0.2553919,0.669801 0,0.92244 0.1266633,0.125975 0.2932532,0.190683 0.4625966,0.190683 0.1665898,0 0.3331797,-0.06471 0.4625965,-0.190683 l 0.4274889,-0.427489 c 0.3063325,0.19619 0.6477729,0.34144 1.0139952,0.421982 l 0,0.602339 c 0,0.360027 0.2925645,0.65328 0.6532795,0.65328 0.360027,0 0.653281,-0.293253 0.653281,-0.65328 l 0,-0.602339 c 0.365533,-0.07779 0.706974,-0.225792 1.013995,-0.421982 l 0.427489,0.427489 c 0.125974,0.125975 0.293253,0.190683 0.462596,0.190683 0.16659,0 0.33318,-0.06471 0.462597,-0.190683 0.255392,-0.255392 0.255392,-0.669802 0,-0.92244 l -0.427489,-0.427489 c 0.19619,-0.304267 0.34144,-0.6484611 0.421982,-1.013995 l 0.596832,0 c 0.360027,0 0.65328,-0.2932532 0.65328,-0.65328 0,-0.3600268 -0.293253,-0.65328 -0.65328,-0.65328 l 0,0 z m -3.614036,2.430697 c -0.9788875,0 -1.7774173,-0.795776 -1.7774173,-1.7746634 0,0 0,0 0,-0.00275 0,0 0,0 0,-0.00275 0,-0.9788875 0.7985298,-1.7746637 1.7774173,-1.7746637 0.978887,0 1.774664,0.7957762 1.774664,1.7774172 0.0028,0.9788875 -0.795777,1.7774169 -1.774664,1.7774169 l 0,0 z"
           id="path14"
           inkscape:connector-curvature="0"
           style="fill:#ffffff" />
      </g>
    </g>
  </g>
</svg>
