<?xml version="1.0" encoding="UTF-8" standalone="no"?>
<!-- Created with Inkscape (http://www.inkscape.org/) -->

<svg
   xmlns:dc="http://purl.org/dc/elements/1.1/"
   xmlns:cc="http://creativecommons.org/ns#"
   xmlns:rdf="http://www.w3.org/1999/02/22-rdf-syntax-ns#"
   xmlns:svg="http://www.w3.org/2000/svg"
   xmlns="http://www.w3.org/2000/svg"
   xmlns:sodipodi="http://sodipodi.sourceforge.net/DTD/sodipodi-0.dtd"
   xmlns:inkscape="http://www.inkscape.org/namespaces/inkscape"
   id="svg3336"
   version="1.1"
   inkscape:version="0.91 r13725"
   xml:space="preserve"
   width="785.10138"
   height="122.0965"
   viewBox="0 0 785.10141 122.0965"
   sodipodi:docname="snoozit-title.svg"><metadata
     id="metadata3342"><rdf:RDF><cc:Work
         rdf:about=""><dc:format>image/svg+xml</dc:format><dc:type
           rdf:resource="http://purl.org/dc/dcmitype/StillImage" /><dc:title></dc:title></cc:Work></rdf:RDF></metadata><defs
     id="defs3340"><clipPath
       clipPathUnits="userSpaceOnUse"
       id="clipPath3352"><path
         d="m 0,450.945 946.66,0 L 946.66,0 0,0 0,450.945 Z"
         id="path3354"
         inkscape:connector-curvature="0" /></clipPath><clipPath
       clipPathUnits="userSpaceOnUse"
       id="clipPath3364"><path
         d="m 239.717,194.523 625.928,0 0,-53.984 -625.928,0 0,53.984 z"
         id="path3366"
         inkscape:connector-curvature="0" /></clipPath></defs><sodipodi:namedview
     pagecolor="#ffffff"
     bordercolor="#666666"
     borderopacity="1"
     objecttolerance="10"
     gridtolerance="10"
     guidetolerance="10"
     inkscape:pageopacity="0"
     inkscape:pageshadow="2"
     inkscape:window-width="1843"
     inkscape:window-height="1057"
     id="namedview3338"
     showgrid="false"
     inkscape:zoom="0.12608501"
     inkscape:cx="392.55069"
     inkscape:cy="61.048231"
     inkscape:window-x="-8"
     inkscape:window-y="-8"
     inkscape:window-maximized="1"
     inkscape:current-layer="g3344"
     fit-margin-top="0"
     fit-margin-left="0"
     fit-margin-right="0"
     fit-margin-bottom="0" /><g
     id="g3344"
     inkscape:groupmode="layer"
     inkscape:label="snooze_horizontal"
     transform="matrix(1.25,0,0,-1.25,-3750.7117,-2557.6974)"><path
       d="m 3022.3795,-2110.6569 c 0.931,0 1.708,-0.715 1.78,-1.643 0.706,-9.089 7.294,-14.415 16.088,-14.415 7.856,0 13.531,4.379 13.531,10.882 0,7.299 -6.839,9.953 -15.859,13.006 -18.041,6.105 -34.482,11.679 -34.482,29.728 0,18.447 17.168,26.941 35.937,26.941 22.884,0 35.063,-12.696 36.021,-27.667 0.067,-1.041 -0.754,-1.928 -1.798,-1.928 l -19.993,0 c -0.931,0 -1.707,0.717 -1.78,1.645 -0.572,7.267 -5.015,11.759 -12.741,11.759 -6.547,0 -12.221,-3.318 -12.221,-9.423 0,-5.972 5.383,-9.423 14.549,-12.342 18.042,-5.707 35.792,-11.547 35.792,-30.525 0,-18.048 -15.859,-29.196 -37.683,-29.196 -22.007,0 -37.996,11.227 -38.949,31.264 -0.049,1.036 0.757,1.914 1.794,1.914 l 20.014,0 z"
       style="fill:#01a9bd;fill-opacity:1;fill-rule:nonzero;stroke:none"
       id="path3444"
       inkscape:connector-curvature="0" /><path
       d="m 3154.3105,-2102.6595 0,52.318 c 0,0.991 0.804,1.794 1.795,1.794 l 19.835,0 c 0.991,0 1.795,-0.803 1.795,-1.794 l 0,-89.31 c 0,-0.991 -0.804,-1.795 -1.795,-1.795 l -21.79,0 c -0.624,0 -1.203,0.324 -1.529,0.856 l -32.815,53.45 c -0.948,1.543 -3.325,0.872 -3.325,-0.939 l 0,-51.572 c 0,-0.991 -0.804,-1.795 -1.795,-1.795 l -19.98,0 c -0.991,0 -1.795,0.804 -1.795,1.795 l 0,89.31 c 0,0.991 0.804,1.794 1.795,1.794 l 21.785,0 c 0.626,0 1.208,-0.326 1.533,-0.862 l 32.958,-54.183 c 0.943,-1.55 3.328,-0.882 3.328,0.933"
       style="fill:#01a9bd;fill-opacity:1;fill-rule:nonzero;stroke:none"
       id="path3448"
       inkscape:connector-curvature="0" /><path
       d="m 3275.939,-2094.9971 c 0,15.262 -11.348,29.463 -29.826,29.463 -18.624,0 -29.828,-14.201 -29.828,-29.463 0,-15.262 11.204,-29.462 29.828,-29.462 18.478,0 29.826,14.2 29.826,29.462 m -83.806,0 c 0,25.481 20.079,48.839 53.98,48.839 33.755,0 53.832,-23.358 53.832,-48.839 0,-25.481 -20.077,-48.838 -53.832,-48.838 -33.901,0 -53.98,23.357 -53.98,48.838"
       style="fill:#01a9bd;fill-opacity:1;fill-rule:nonzero;stroke:none"
       id="path3452"
       inkscape:connector-curvature="0" /><path
       d="m 3393.0569,-2094.9971 c 0,15.262 -11.349,29.463 -29.826,29.463 -18.624,0 -29.827,-14.201 -29.827,-29.463 0,-15.262 11.203,-29.462 29.827,-29.462 18.477,0 29.826,14.2 29.826,29.462 m -83.806,0 c 0,25.481 20.078,48.839 53.98,48.839 33.755,0 53.833,-23.358 53.833,-48.839 0,-25.481 -20.078,-48.838 -53.833,-48.838 -33.902,0 -53.98,23.357 -53.98,48.838"
       style="fill:#01a9bd;fill-opacity:1;fill-rule:nonzero;stroke:none"
       id="path3456"
       inkscape:connector-curvature="0" /><path
       d="m 3430.0553,-2048.5471 78.075,0 c 1.433,0 2.288,-1.598 1.493,-2.791 l -46.183,-69.269 c -0.795,-1.193 0.06,-2.79 1.494,-2.79 l 43.154,0 c 0.991,0 1.795,-0.804 1.795,-1.795 l 0,-14.46 c 0,-0.991 -0.804,-1.794 -1.795,-1.794 l -80.553,0 c -1.433,0 -2.288,1.595 -1.495,2.788 l 46.052,69.273 c 0.794,1.193 -0.062,2.789 -1.494,2.789 l -40.543,0 c -0.991,0 -1.795,0.803 -1.795,1.795 l 0,14.459 c 0,0.991 0.804,1.795 1.795,1.795"
       style="fill:#01a9bd;fill-opacity:1;fill-rule:nonzero;stroke:none"
       id="path3460"
       inkscape:connector-curvature="0" /><path
       d="m 3524.9658,-2048.5471 20.271,0 c 0.992,0 1.795,-0.804 1.795,-1.795 l 0,-89.31 c 0,-0.991 -0.803,-1.794 -1.795,-1.794 l -20.271,0 c -0.991,0 -1.795,0.803 -1.795,1.794 l 0,89.31 c 0,0.991 0.804,1.795 1.795,1.795"
       style="fill:#01a9bd;fill-opacity:1;fill-rule:nonzero;stroke:none"
       id="path3464"
       inkscape:connector-curvature="0" /><path
       d="m 3580.1515,-2067.1268 -19.398,0 c -0.991,0 -1.795,0.804 -1.795,1.795 l 0,14.99 c 0,0.991 0.804,1.795 1.795,1.795 l 66.102,0 c 0.991,0 1.795,-0.804 1.795,-1.795 l 0,-14.99 c 0,-0.991 -0.804,-1.795 -1.795,-1.795 l -19.543,0 c -0.992,0 -1.795,-0.804 -1.795,-1.795 l 0,-70.73 c 0,-0.991 -0.804,-1.795 -1.795,-1.795 l -19.981,0 c -0.991,0 -1.795,0.804 -1.795,1.795 l 0,70.73 c 0,0.991 -0.804,1.795 -1.795,1.795"
       style="fill:#01a9bd;fill-opacity:1;fill-rule:nonzero;stroke:none"
       id="path3468"
       inkscape:connector-curvature="0" /></g></svg>