<?xml version="1.0" encoding="UTF-8" standalone="no"?>
<!-- Created with Inkscape (http://www.inkscape.org/) -->

<svg
   xmlns:dc="http://purl.org/dc/elements/1.1/"
   xmlns:cc="http://creativecommons.org/ns#"
   xmlns:rdf="http://www.w3.org/1999/02/22-rdf-syntax-ns#"
   xmlns:svg="http://www.w3.org/2000/svg"
   xmlns="http://www.w3.org/2000/svg"
   xmlns:sodipodi="http://sodipodi.sourceforge.net/DTD/sodipodi-0.dtd"
   xmlns:inkscape="http://www.inkscape.org/namespaces/inkscape"
   id="svg3336"
   version="1.1"
   inkscape:version="0.91 r13725"
   xml:space="preserve"
   width="990.20599"
   height="245.6555"
   viewBox="0 0 990.20603 245.6555"
   sodipodi:docname="snoozit-logo-complete.svg"><metadata
     id="metadata3342"><rdf:RDF><cc:Work
         rdf:about=""><dc:format>image/svg+xml</dc:format><dc:type
           rdf:resource="http://purl.org/dc/dcmitype/StillImage" /><dc:title></dc:title></cc:Work></rdf:RDF></metadata><defs
     id="defs3340"><clipPath
       clipPathUnits="userSpaceOnUse"
       id="clipPath3352"><path
         d="m 0,450.945 946.66,0 L 946.66,0 0,0 0,450.945 Z"
         id="path3354"
         inkscape:connector-curvature="0" /></clipPath><clipPath
       clipPathUnits="userSpaceOnUse"
       id="clipPath3364"><path
         d="m 239.717,194.523 625.928,0 0,-53.984 -625.928,0 0,53.984 z"
         id="path3366"
         inkscape:connector-curvature="0" /></clipPath></defs><sodipodi:namedview
     pagecolor="#ffffff"
     bordercolor="#666666"
     borderopacity="1"
     objecttolerance="10"
     gridtolerance="10"
     guidetolerance="10"
     inkscape:pageopacity="0"
     inkscape:pageshadow="2"
     inkscape:window-width="1843"
     inkscape:window-height="1057"
     id="namedview3338"
     showgrid="false"
     inkscape:zoom="1.426489"
     inkscape:cx="499.81223"
     inkscape:cy="122.97924"
     inkscape:window-x="-8"
     inkscape:window-y="-8"
     inkscape:window-maximized="1"
     inkscape:current-layer="g3344"
     fit-margin-top="0"
     fit-margin-left="0"
     fit-margin-right="0"
     fit-margin-bottom="0" /><g
     id="g3344"
     inkscape:groupmode="layer"
     inkscape:label="snooze_horizontal"
     transform="matrix(1.25,0,0,-1.25,-91.85025,404.51687)"><path
       d="m 140.971,131.891 -2.028,0 0,59.117 2.028,0 0,-59.117 z"
       style="fill:#444444;fill-opacity:1;fill-rule:nonzero;stroke:none"
       id="path3346"
       inkscape:connector-curvature="0" /><g
       id="g3348"><g
         id="g3350"
         clip-path="url(#clipPath3352)"><g
           id="g3356"
           transform="translate(144.6551,131.8911)"><path
             d="m 0,0 c 0,-2.652 -2.103,-4.802 -4.698,-4.802 -2.594,0 -4.698,2.15 -4.698,4.802 0,2.652 2.104,4.802 4.698,4.802 C -2.103,4.802 0,2.652 0,0"
             style="fill:#444444;fill-opacity:1;fill-rule:nonzero;stroke:none"
             id="path3358"
             inkscape:connector-curvature="0" /></g><g
           id="g3360"><g
             id="g3362" /><g
             id="g3368"><g
               clip-path="url(#clipPath3364)"
               id="g3370"
               style="opacity:0.57000703"><g
                 transform="translate(244.7718,167.1422)"
                 id="g3372"><path
                   d="m 0,0 c 0,-5.332 3.499,-8.72 8.775,-8.72 4.498,0 7.72,2.499 7.72,6.665 0,4.554 -3.833,5.887 -7.387,6.998 -6.721,2.11 -12.774,4.221 -12.774,11.607 0,6.998 5.388,10.831 11.941,10.831 7.275,0 12.329,-4.721 12.385,-11.886 l -5.054,0 c -0.111,4.666 -2.776,7.331 -7.275,7.331 -4.055,0 -6.943,-2.222 -6.943,-5.943 0,-4.054 3.444,-5.386 7.221,-6.609 6.386,-2.054 12.94,-4.276 12.94,-11.996 0,-7.275 -5.777,-11.552 -12.996,-11.552 -7.776,0 -13.607,4.999 -13.607,13.274 L 0,0 Z"
                   style="fill:#01a9bd;fill-opacity:1;fill-rule:nonzero;stroke:none"
                   id="path3374"
                   inkscape:connector-curvature="0" /></g><path
                 d="m 279.589,179.971 4.776,0 0,-25.215 -4.776,0 0,25.215 z m 2.387,13.496 c 2.167,0 3.889,-1.777 3.889,-3.943 0,-2.11 -1.722,-3.832 -3.889,-3.832 -2.165,0 -3.887,1.722 -3.887,3.832 0,2.166 1.722,3.943 3.887,3.943"
                 style="fill:#01a9bd;fill-opacity:1;fill-rule:nonzero;stroke:none"
                 id="path3376"
                 inkscape:connector-curvature="0" /><g
                 transform="translate(332.0123,154.7567)"
                 id="g3378"><path
                   d="m 0,0 0,14.495 c 0,4.666 -1.888,7.109 -5.331,7.109 -3.722,0 -6.166,-2.887 -6.166,-8.775 l 0,-12.829 -4.832,0 0,14.218 c 0,5.054 -1.888,7.386 -5.22,7.386 -3.721,0 -6.276,-2.832 -6.276,-8.775 l 0,-12.829 -4.832,0 0,25.215 4.832,0 0,-4.499 c 1.055,2.888 3.554,5.165 7.72,5.165 4.055,0 6.942,-2.11 7.831,-5.387 1.11,2.888 3.887,5.387 8.497,5.387 6.11,0 8.609,-4.388 8.609,-9.941 L 4.832,0 0,0 Z"
                   style="fill:#01a9bd;fill-opacity:1;fill-rule:nonzero;stroke:none"
                   id="path3380"
                   inkscape:connector-curvature="0" /></g><g
                 transform="translate(355.3304,167.3638)"
                 id="g3382"><path
                   d="m 0,0 c 0,-4.887 3.388,-8.886 8.498,-8.886 5.165,0 8.441,4.11 8.441,8.886 0,4.777 -3.276,8.942 -8.441,8.942 C 3.388,8.942 0,4.888 0,0 m 0,8.275 c 1.556,2.889 4.722,4.999 9.053,4.999 7.331,0 12.718,-6.109 12.718,-13.274 0,-7.053 -5.331,-13.218 -12.718,-13.218 -4.331,0 -7.497,2.111 -9.053,4.998 l 0,-18.049 -4.832,0 0,38.877 4.832,0 0,-4.333 z"
                   style="fill:#01a9bd;fill-opacity:1;fill-rule:nonzero;stroke:none"
                   id="path3384"
                   inkscape:connector-curvature="0" /></g><path
                 d="m 389.147,193.634 4.832,0 0,-38.877 -4.832,0 0,38.877 z"
                 style="fill:#01a9bd;fill-opacity:1;fill-rule:nonzero;stroke:none"
                 id="path3386"
                 inkscape:connector-curvature="0" /><g
                 transform="translate(411.0822,169.7525)"
                 id="g3388"><path
                   d="m 0,0 14.44,0 c 0,4.109 -2.999,6.776 -7.165,6.776 C 3.332,6.776 0.11,4.388 0,0 m -0.056,-3.666 c 0,-4.276 2.221,-7.886 7.609,-7.886 3.832,0 5.61,1.833 6.443,3.999 l 4.886,0 c -0.887,-4.277 -4.886,-8.054 -11.329,-8.054 -8.442,0 -12.551,6.387 -12.551,13.329 0,7.499 4.72,13.163 12.162,13.163 6.998,0 11.941,-4.942 11.941,-11.385 0,-0.722 0,-1.778 -0.223,-3.166 l -18.938,0 z"
                   style="fill:#01a9bd;fill-opacity:1;fill-rule:nonzero;stroke:none"
                   id="path3390"
                   inkscape:connector-curvature="0" /></g><g
                 transform="translate(473.2204,185.3584)"
                 id="g3392"><path
                   d="m 0,0 -6.388,-20.049 12.664,0 L 0,0 Z m 9.885,-30.602 -2.055,5.943 -15.772,0 -2,-5.943 -5.331,0 13.385,38.877 3.665,0 13.44,-38.877 -5.332,0 z"
                   style="fill:#01a9bd;fill-opacity:1;fill-rule:nonzero;stroke:none"
                   id="path3394"
                   inkscape:connector-curvature="0" /></g><g
                 transform="translate(517.0895,179.9715)"
                 id="g3396"><path
                   d="m 0,0 -13.495,-20.882 13.551,0 0,-4.333 -21.716,0 13.496,20.939 -13.052,0 0,4.276 L 0,0 Z"
                   style="fill:#01a9bd;fill-opacity:1;fill-rule:nonzero;stroke:none"
                   id="path3398"
                   inkscape:connector-curvature="0" /></g><g
                 transform="translate(550.6305,179.9715)"
                 id="g3400"><path
                   d="m 0,0 0,-25.215 -4.832,0 0,4.499 c -1.5,-3.055 -4.61,-5.11 -8.997,-5.11 -3.166,0 -5.832,1.056 -7.498,3.277 -1.389,1.888 -1.888,4.166 -1.888,7.664 l 0,14.885 4.832,0 0,-13.33 c 0,-4.665 1.666,-8.219 6.276,-8.219 4.942,0 7.275,4.054 7.275,8.609 L -4.832,0 0,0 Z"
                   style="fill:#01a9bd;fill-opacity:1;fill-rule:nonzero;stroke:none"
                   id="path3402"
                   inkscape:connector-curvature="0" /></g><g
                 transform="translate(580.2817,175.528)"
                 id="g3404"><path
                   d="m 0,0 c -1.001,0.222 -1.556,0.278 -2.222,0.278 -5.832,0 -8.553,-3.944 -8.553,-9.997 l 0,-11.052 -4.832,0 0,25.214 4.832,0 0,-4.943 c 1.333,3.166 4.776,5.332 8.442,5.332 C -1.5,4.832 -0.667,4.721 0,4.443 L 0,0 Z"
                   style="fill:#01a9bd;fill-opacity:1;fill-rule:nonzero;stroke:none"
                   id="path3406"
                   inkscape:connector-curvature="0" /></g><g
                 transform="translate(592.8285,169.7525)"
                 id="g3408"><path
                   d="m 0,0 14.44,0 c 0,4.109 -2.999,6.776 -7.165,6.776 C 3.332,6.776 0.11,4.388 0,0 m -0.056,-3.666 c 0,-4.276 2.221,-7.886 7.609,-7.886 3.832,0 5.61,1.833 6.443,3.999 l 4.886,0 c -0.887,-4.277 -4.886,-8.054 -11.329,-8.054 -8.442,0 -12.551,6.387 -12.551,13.329 0,7.499 4.72,13.163 12.162,13.163 6.998,0 11.941,-4.942 11.941,-11.385 0,-0.722 0,-1.778 -0.223,-3.166 l -18.938,0 z"
                   style="fill:#01a9bd;fill-opacity:1;fill-rule:nonzero;stroke:none"
                   id="path3410"
                   inkscape:connector-curvature="0" /></g><g
                 transform="translate(646.97,167.1422)"
                 id="g3412"><path
                   d="m 0,0 c 0,-5.332 3.499,-8.72 8.775,-8.72 4.498,0 7.72,2.499 7.72,6.665 0,4.554 -3.833,5.887 -7.387,6.998 -6.721,2.11 -12.774,4.221 -12.774,11.607 0,6.998 5.388,10.831 11.941,10.831 7.276,0 12.329,-4.721 12.385,-11.886 l -5.054,0 c -0.111,4.666 -2.776,7.331 -7.275,7.331 -4.055,0 -6.943,-2.222 -6.943,-5.943 0,-4.054 3.444,-5.386 7.221,-6.609 6.386,-2.054 12.94,-4.276 12.94,-11.996 0,-7.275 -5.777,-11.552 -12.996,-11.552 -7.776,0 -13.607,4.999 -13.607,13.274 L 0,0 Z"
                   style="fill:#01a9bd;fill-opacity:1;fill-rule:nonzero;stroke:none"
                   id="path3414"
                   inkscape:connector-curvature="0" /></g><g
                 transform="translate(700.5591,167.3638)"
                 id="g3416"><path
                   d="m 0,0 c 0,4.832 -3.332,8.942 -8.497,8.942 -5.166,0 -8.498,-4.11 -8.498,-8.942 0,-4.831 3.332,-8.886 8.498,-8.886 C -3.332,-8.886 0,-4.831 0,0 m 4.776,12.608 0,-25.215 -4.776,0 0,4.387 c -1.556,-2.887 -4.776,-4.998 -9.108,-4.998 -7.331,0 -12.663,6.109 -12.663,13.218 0,7.165 5.387,13.274 12.718,13.274 4.277,0 7.497,-2.11 9.053,-4.999 l 0,4.333 4.776,0 z"
                   style="fill:#01a9bd;fill-opacity:1;fill-rule:nonzero;stroke:none"
                   id="path3418"
                   inkscape:connector-curvature="0" /></g><g
                 transform="translate(720.4904,179.9715)"
                 id="g3420"><path
                   d="M 0,0 7.886,-18.328 15.884,0 21.105,0 9.552,-25.215 6.22,-25.215 -5.221,0 0,0 Z"
                   style="fill:#01a9bd;fill-opacity:1;fill-rule:nonzero;stroke:none"
                   id="path3422"
                   inkscape:connector-curvature="0" /></g><path
                 d="m 752.476,179.971 4.776,0 0,-25.215 -4.776,0 0,25.215 z m 2.387,13.496 c 2.167,0 3.889,-1.777 3.889,-3.943 0,-2.11 -1.722,-3.832 -3.889,-3.832 -2.165,0 -3.887,1.722 -3.887,3.832 0,2.166 1.722,3.943 3.887,3.943"
                 style="fill:#01a9bd;fill-opacity:1;fill-rule:nonzero;stroke:none"
                 id="path3424"
                 inkscape:connector-curvature="0" /><g
                 transform="translate(772.2419,179.9715)"
                 id="g3426"><path
                   d="m 0,0 4.832,0 0,-4.443 c 1.5,3.054 4.554,5.109 8.941,5.109 3.222,0 5.833,-1.11 7.499,-3.332 1.388,-1.889 1.943,-4.165 1.943,-7.664 l 0,-14.885 -4.832,0 0,13.385 c 0,4.665 -1.72,8.22 -6.33,8.22 -4.944,0 -7.221,-4.11 -7.221,-8.608 l 0,-12.997 -4.832,0 L 0,0 Z"
                   style="fill:#01a9bd;fill-opacity:1;fill-rule:nonzero;stroke:none"
                   id="path3428"
                   inkscape:connector-curvature="0" /></g><g
                 transform="translate(811.7235,167.3638)"
                 id="g3430"><path
                   d="m 0,0 c 0,-4.831 3.332,-8.886 8.498,-8.886 5.165,0 8.497,4.055 8.497,8.886 0,4.832 -3.332,8.942 -8.497,8.942 C 3.332,8.942 0,4.832 0,0 m 21.771,-14.218 c 0,-8.997 -5.276,-12.607 -12.996,-12.607 -9.663,0 -12.829,5.609 -13.217,10.997 l 4.886,0 c 0.334,-3.611 2.444,-6.721 8.165,-6.721 4.998,0 8.386,2.388 8.386,8.331 l 0,5.998 c -1.555,-2.887 -4.776,-4.998 -9.108,-4.998 -7.331,0 -12.663,6.109 -12.663,13.218 0,7.165 5.387,13.274 12.718,13.274 4.277,0 7.498,-2.11 9.053,-4.999 l 0,4.333 4.776,0 0,-26.826 z"
                   style="fill:#01a9bd;fill-opacity:1;fill-rule:nonzero;stroke:none"
                   id="path3432"
                   inkscape:connector-curvature="0" /></g><g
                 transform="translate(865.6453,161.6993)"
                 id="g3434"><path
                   d="m 0,0 c 0,-5.054 -4.276,-7.553 -9.664,-7.553 -5.886,0 -10.664,2.998 -10.664,9.108 l 4.722,0 c 0,-3.833 2.555,-5.276 5.998,-5.276 2.999,0 4.998,1.111 4.998,3.554 0,2.666 -2.333,2.888 -7.998,4.777 -3.665,1.221 -6.831,2.61 -6.831,6.942 0,5.054 4.332,7.386 9.164,7.386 5.832,0 9.997,-3.443 9.997,-8.497 l -4.665,0 c 0,2.944 -1.832,4.61 -5.11,4.61 -2.721,0 -4.72,-1.166 -4.72,-3.388 0,-2.555 2.61,-2.888 7.275,-4.388 C -3.887,6.109 0,4.776 0,0"
                   style="fill:#01a9bd;fill-opacity:1;fill-rule:nonzero;stroke:none"
                   id="path3436"
                   inkscape:connector-curvature="0" /></g></g></g></g><g
           id="g3438"
           transform="translate(203.2422,214.7325)"><path
             d="m 0,0 c -4.607,-1.066 -9.405,-1.594 -14.338,-1.519 -32.852,0.47 -59.324,27.742 -58.897,60.672 0.235,18.115 8.474,34.24 21.288,45.052 1.784,1.51 0.812,4.441 -1.516,4.566 -1.305,0.075 -2.622,0.11 -3.944,0.11 -39.961,0 -72.355,-32.468 -72.355,-72.526 0,-40.032 32.601,-72.626 72.539,-72.525 24.997,0.058 47.014,12.835 59.969,32.207 C 4.052,-2.007 2.294,0.529 0,0"
             style="fill:#f7d50a;fill-opacity:1;fill-rule:nonzero;stroke:none"
             id="path3440"
             inkscape:connector-curvature="0" /></g><g
           id="g3442"
           transform="translate(259.0278,253.1362)"><path
             d="m 0,0 c 0.931,0 1.708,-0.715 1.78,-1.643 0.706,-9.089 7.294,-14.415 16.088,-14.415 7.856,0 13.531,4.379 13.531,10.882 0,7.299 -6.839,9.953 -15.859,13.006 -18.041,6.105 -34.482,11.679 -34.482,29.728 0,18.447 17.168,26.941 35.937,26.941 22.884,0 35.063,-12.696 36.021,-27.667 0.067,-1.041 -0.754,-1.928 -1.798,-1.928 l -19.993,0 c -0.931,0 -1.707,0.717 -1.78,1.645 -0.572,7.267 -5.015,11.759 -12.741,11.759 -6.547,0 -12.221,-3.318 -12.221,-9.423 0,-5.972 5.383,-9.423 14.549,-12.342 18.042,-5.707 35.792,-11.547 35.792,-30.525 0,-18.048 -15.859,-29.196 -37.683,-29.196 -22.007,0 -37.996,11.227 -38.949,31.264 C -21.857,-0.878 -21.051,0 -20.014,0 L 0,0 Z"
             style="fill:#01a9bd;fill-opacity:1;fill-rule:nonzero;stroke:none"
             id="path3444"
             inkscape:connector-curvature="0" /></g><g
           id="g3446"
           transform="translate(390.9588,261.1336)"><path
             d="m 0,0 0,52.318 c 0,0.991 0.804,1.794 1.795,1.794 l 19.835,0 c 0.991,0 1.795,-0.803 1.795,-1.794 l 0,-89.31 c 0,-0.991 -0.804,-1.795 -1.795,-1.795 l -21.79,0 c -0.624,0 -1.203,0.324 -1.529,0.856 l -32.815,53.45 c -0.948,1.543 -3.325,0.872 -3.325,-0.939 l 0,-51.572 c 0,-0.991 -0.804,-1.795 -1.795,-1.795 l -19.98,0 c -0.991,0 -1.795,0.804 -1.795,1.795 l 0,89.31 c 0,0.991 0.804,1.794 1.795,1.794 l 21.785,0 c 0.626,0 1.208,-0.326 1.533,-0.862 L -3.328,-0.933 C -2.385,-2.483 0,-1.815 0,0"
             style="fill:#01a9bd;fill-opacity:1;fill-rule:nonzero;stroke:none"
             id="path3448"
             inkscape:connector-curvature="0" /></g><g
           id="g3450"
           transform="translate(512.5873,268.796)"><path
             d="M 0,0 C 0,15.262 -11.348,29.463 -29.826,29.463 -48.45,29.463 -59.654,15.262 -59.654,0 c 0,-15.262 11.204,-29.462 29.828,-29.462 C -11.348,-29.462 0,-15.262 0,0 m -83.806,0 c 0,25.481 20.079,48.839 53.98,48.839 33.755,0 53.832,-23.358 53.832,-48.839 0,-25.481 -20.077,-48.838 -53.832,-48.838 -33.901,0 -53.98,23.357 -53.98,48.838"
             style="fill:#01a9bd;fill-opacity:1;fill-rule:nonzero;stroke:none"
             id="path3452"
             inkscape:connector-curvature="0" /></g><g
           id="g3454"
           transform="translate(629.7052,268.796)"><path
             d="M 0,0 C 0,15.262 -11.349,29.463 -29.826,29.463 -48.45,29.463 -59.653,15.262 -59.653,0 c 0,-15.262 11.203,-29.462 29.827,-29.462 C -11.349,-29.462 0,-15.262 0,0 m -83.806,0 c 0,25.481 20.078,48.839 53.98,48.839 33.755,0 53.833,-23.358 53.833,-48.839 0,-25.481 -20.078,-48.838 -53.833,-48.838 -33.902,0 -53.98,23.357 -53.98,48.838"
             style="fill:#01a9bd;fill-opacity:1;fill-rule:nonzero;stroke:none"
             id="path3456"
             inkscape:connector-curvature="0" /></g><g
           id="g3458"
           transform="translate(666.7036,315.246)"><path
             d="m 0,0 78.075,0 c 1.433,0 2.288,-1.598 1.493,-2.791 L 33.385,-72.06 c -0.795,-1.193 0.06,-2.79 1.494,-2.79 l 43.154,0 c 0.991,0 1.795,-0.804 1.795,-1.795 l 0,-14.46 c 0,-0.991 -0.804,-1.794 -1.795,-1.794 l -80.553,0 c -1.433,0 -2.288,1.595 -1.495,2.788 l 46.052,69.273 c 0.794,1.193 -0.062,2.789 -1.494,2.789 l -40.543,0 c -0.991,0 -1.795,0.803 -1.795,1.795 l 0,14.459 C -1.795,-0.804 -0.991,0 0,0"
             style="fill:#01a9bd;fill-opacity:1;fill-rule:nonzero;stroke:none"
             id="path3460"
             inkscape:connector-curvature="0" /></g><g
           id="g3462"
           transform="translate(761.6141,315.246)"><path
             d="m 0,0 20.271,0 c 0.992,0 1.795,-0.804 1.795,-1.795 l 0,-89.31 c 0,-0.991 -0.803,-1.794 -1.795,-1.794 l -20.271,0 c -0.991,0 -1.795,0.803 -1.795,1.794 l 0,89.31 C -1.795,-0.804 -0.991,0 0,0"
             style="fill:#01a9bd;fill-opacity:1;fill-rule:nonzero;stroke:none"
             id="path3464"
             inkscape:connector-curvature="0" /></g><g
           id="g3466"
           transform="translate(816.7998,296.6663)"><path
             d="m 0,0 -19.398,0 c -0.991,0 -1.795,0.804 -1.795,1.795 l 0,14.99 c 0,0.991 0.804,1.795 1.795,1.795 l 66.102,0 c 0.991,0 1.795,-0.804 1.795,-1.795 l 0,-14.99 C 48.499,0.804 47.695,0 46.704,0 L 27.161,0 c -0.992,0 -1.795,-0.804 -1.795,-1.795 l 0,-70.73 c 0,-0.991 -0.804,-1.795 -1.795,-1.795 l -19.981,0 c -0.991,0 -1.795,0.804 -1.795,1.795 l 0,70.73 C 1.795,-0.804 0.991,0 0,0"
             style="fill:#01a9bd;fill-opacity:1;fill-rule:nonzero;stroke:none"
             id="path3468"
             inkscape:connector-curvature="0" /></g></g></g></g></svg>