<?xml version="1.0" encoding="UTF-8" standalone="no"?>
<svg width="534px" height="455px" viewBox="0 0 534 455" version="1.1" xmlns="http://www.w3.org/2000/svg" xmlns:xlink="http://www.w3.org/1999/xlink">
    <!-- Generator: sketchtool 40.3 (33839) - http://www.bohemiancoding.com/sketch -->
    <title>01FD9267-C22B-42F9-AE39-52009E5F8C47</title>
    <desc>Created with sketchtool.</desc>
    <defs></defs>
    <g id="Page-3" stroke="none" stroke-width="1" fill="none" fill-rule="evenodd">
        <g id="Landing-Page" transform="translate(-106.000000, -129.000000)" fill="#F7D509">
            <g id="Stars-groupe" transform="translate(106.000000, 129.000000)">
                <g id="Stars-2">
                    <path d="M166.499028,451.567415 L160.399189,454.814837 C159.557261,455.263105 159.007524,454.869914 159.171863,453.932681 L160.369449,447.100642 L155.400356,442.282599 C154.717554,441.620446 154.929723,440.974818 155.872216,440.841102 L162.710965,439.872965 L165.745708,433.640963 C166.16238,432.78757 166.835677,432.785122 167.252349,433.640963 L170.287092,439.872965 L177.125841,440.841102 C178.069561,440.974818 178.284182,441.616775 177.597701,442.282599 L172.628608,447.100642 L173.826194,453.932681 C173.990533,454.86869 173.43957,455.263105 172.598868,454.814837 L166.499028,451.567415 Z" id="Page-1"></path>
                    <path d="M11.4990285,361.567415 L5.39918901,364.814837 C4.55726093,365.263105 4.0075242,364.869914 4.17186268,363.932681 L5.36944865,357.100642 L0.400356007,352.282599 C-0.282445827,351.620446 -0.0702774977,350.974818 0.872215917,350.841102 L7.71096531,349.872965 L10.7457083,343.640963 C11.1623799,342.78757 11.8356771,342.785122 12.2523487,343.640963 L15.2870916,349.872965 L22.125841,350.841102 C23.0695608,350.974818 23.284182,351.616775 22.5977009,352.282599 L17.6286083,357.100642 L18.8261943,363.932681 C18.9905327,364.86869 18.4395696,365.263105 17.5988679,364.814837 L11.4990285,361.567415 Z" id="Page-1-Copy-10"></path>
                    <path d="M173.499028,313.567415 L167.399189,316.814837 C166.557261,317.263105 166.007524,316.869914 166.171863,315.932681 L167.369449,309.100642 L162.400356,304.282599 C161.717554,303.620446 161.929723,302.974818 162.872216,302.841102 L169.710965,301.872965 L172.745708,295.640963 C173.16238,294.78757 173.835677,294.785122 174.252349,295.640963 L177.287092,301.872965 L184.125841,302.841102 C185.069561,302.974818 185.284182,303.616775 184.597701,304.282599 L179.628608,309.100642 L180.826194,315.932681 C180.990533,316.86869 180.43957,317.263105 179.598868,316.814837 L173.499028,313.567415 Z" id="Page-1-Copy-11"></path>
                    <path d="M522.499028,64.5674152 L516.399189,67.8148368 C515.557261,68.2631052 515.007524,67.8699141 515.171863,66.9326813 L516.369449,60.1006424 L511.400356,55.2825986 C510.717554,54.6204465 510.929723,53.9748176 511.872216,53.841102 L518.710965,52.8729647 L521.745708,46.6409629 C522.16238,45.7875701 522.835677,45.7851222 523.252349,46.6409629 L526.287092,52.8729647 L533.125841,53.841102 C534.069561,53.9748176 534.284182,54.6167747 533.597701,55.2825986 L528.628608,60.1006424 L529.826194,66.9326813 C529.990533,67.8686902 529.43957,68.2631052 528.598868,67.8148368 L522.499028,64.5674152 Z" id="Page-1-Copy-12"></path>
                    <path d="M477.999324,12.6596013 L473.755958,14.8737523 C473.170268,15.1793899 472.787843,14.9113051 472.902165,14.2722827 L473.735269,9.61407439 L470.278509,6.32904449 C469.803516,5.87757715 469.951111,5.43737563 470.606759,5.34620593 L475.36415,4.68611228 L477.475275,0.437020191 C477.765134,-0.144838593 478.233514,-0.146507603 478.523373,0.437020191 L480.634499,4.68611228 L485.391889,5.34620593 C486.04839,5.43737563 486.197692,5.87507363 485.72014,6.32904449 L482.26338,9.61407439 L483.096483,14.2722827 C483.210805,14.9104706 482.827527,15.1793899 482.242691,14.8737523 L477.999324,12.6596013 Z" id="Page-1-Copy-13"></path>
                    <path d="M93.9993241,230.659601 L89.7559576,232.873752 C89.1702685,233.17939 88.7878429,232.911305 88.9021653,232.272283 L89.7352686,227.614074 L86.2785085,224.329044 C85.8035159,223.877577 85.9511113,223.437376 86.6067589,223.346206 L91.3641498,222.686112 L93.4752753,218.43702 C93.7651338,217.855161 94.2335145,217.853492 94.523373,218.43702 L96.6344985,222.686112 L101.391889,223.346206 C102.04839,223.437376 102.197692,223.875074 101.72014,224.329044 L98.2633797,227.614074 L99.096483,232.272283 C99.2108054,232.910471 98.8275267,233.17939 98.2426907,232.873752 L93.9993241,230.659601 Z" id="Page-1-Copy-14"></path>
                    <path d="M36.9993241,73.6596013 L32.7559576,75.8737523 C32.1702685,76.1793899 31.7878429,75.9113051 31.9021653,75.2722827 L32.7352686,70.6140744 L29.2785085,67.3290445 C28.8035159,66.8775771 28.9511113,66.4373756 29.6067589,66.3462059 L34.3641498,65.6861123 L36.4752753,61.4370202 C36.7651338,60.8551614 37.2335145,60.8534924 37.523373,61.4370202 L39.6344985,65.6861123 L44.3918894,66.3462059 C45.0483901,66.4373756 45.1976918,66.8750736 44.7201398,67.3290445 L41.2633797,70.6140744 L42.096483,75.2722827 C42.2108054,75.9104706 41.8275267,76.1793899 41.2426907,75.8737523 L36.9993241,73.6596013 Z" id="Page-1-Copy-15"></path>
                    <path d="M109.999324,20.6596013 L105.755958,22.8737523 C105.170268,23.1793899 104.787843,22.9113051 104.902165,22.2722827 L105.735269,17.6140744 L102.278509,14.3290445 C101.803516,13.8775771 101.951111,13.4373756 102.606759,13.3462059 L107.36415,12.6861123 L109.475275,8.43702019 C109.765134,7.85516141 110.233514,7.8534924 110.523373,8.43702019 L112.634499,12.6861123 L117.391889,13.3462059 C118.04839,13.4373756 118.197692,13.8750736 117.72014,14.3290445 L114.26338,17.6140744 L115.096483,22.2722827 C115.210805,22.9104706 114.827527,23.1793899 114.242691,22.8737523 L109.999324,20.6596013 Z" id="Page-1-Copy-16"></path>
                </g>
            </g>
        </g>
    </g>
</svg>