<?xml version="1.0" encoding="UTF-8" standalone="no"?>
<svg width="72px" height="75px" viewBox="0 0 72 75" version="1.1" xmlns="http://www.w3.org/2000/svg" xmlns:xlink="http://www.w3.org/1999/xlink">
    <!-- Generator: sketchtool 40.3 (33839) - http://www.bohemiancoding.com/sketch -->
    <title>FCEACB80-CAE2-4EC6-B643-1F495DB831F9</title>
    <desc>Created with sketchtool.</desc>
    <defs></defs>
    <g id="Page-3" stroke="none" stroke-width="1" fill="none" fill-rule="evenodd">
        <g id="Landing-Page" transform="translate(-1103.000000, -1051.000000)" fill="#F7D509">
            <g id="Bloc-2---Highlight" transform="translate(312.000000, 797.000000)">
                <g id="Page-1" transform="translate(790.000000, 254.000000)">
                    <path d="M58.109,8.898 L60.125,8.898 L63.195,11.969 L63.195,13.984 C63.195,14.684 63.762,15.254 64.465,15.254 C65.168,15.254 65.738,14.684 65.738,13.984 L65.738,11.969 L68.805,8.898 L70.82,8.898 C71.523,8.898 72.094,8.328 72.094,7.629 C72.094,6.926 71.523,6.355 70.82,6.355 L68.805,6.355 L65.738,3.289 L65.738,1.27 C65.738,0.57 65.168,0 64.465,0 C63.762,0 63.195,0.57 63.195,1.27 L63.195,3.289 L60.125,6.355 L58.109,6.355 C57.406,6.355 56.84,6.926 56.84,7.629 C56.84,8.328 57.406,8.898 58.109,8.898" id="Fill-1"></path>
                    <path d="M40.078,56.625 C40.078,63.953 46.043,69.914 53.371,69.914 C60.695,69.914 66.66,63.953 66.66,56.625 C66.66,49.297 60.695,43.336 53.371,43.336 C46.043,43.336 40.078,49.297 40.078,56.625" id="Fill-2"></path>
                    <path d="M62.312,34.242 L49.102,4.566 C48.816,3.926 48.066,3.641 47.422,3.922 C46.781,4.207 46.492,4.961 46.777,5.602 L59.988,35.273 C61.707,39.137 63.836,43.648 66.594,47.84 C70.727,54.113 69.875,62.52 64.566,67.824 C59.262,73.129 50.855,73.984 44.582,69.852 C40.301,67.035 35.758,64.832 31.488,62.875 L2.707,49.691 C2.07,49.398 1.316,49.68 1.023,50.32 C0.73,50.957 1.008,51.711 1.648,52.004 L30.426,65.188 C34.605,67.102 39.043,69.25 43.184,71.977 C46.27,74.008 49.801,75 53.312,75 C58.082,75 62.82,73.168 66.367,69.621 C72.52,63.469 73.508,53.719 68.719,46.441 C66.062,42.402 63.988,38.008 62.312,34.242" id="Fill-3"></path>
                    <path d="M46.391,29.715 C45.953,29.164 45.152,29.078 44.605,29.516 C44.055,29.953 43.969,30.754 44.406,31.305 L49.492,37.66 C49.742,37.973 50.109,38.137 50.484,38.137 C50.762,38.137 51.043,38.043 51.277,37.855 C51.824,37.418 51.914,36.617 51.477,36.07 L46.391,29.715" id="Fill-4"></path>
                    <path d="M46.836,24.781 C47.07,25.195 47.5,25.422 47.941,25.422 C48.156,25.422 48.371,25.371 48.57,25.258 C49.18,24.906 49.391,24.133 49.043,23.523 L43.961,14.625 C43.609,14.016 42.836,13.801 42.227,14.152 C41.617,14.5 41.402,15.277 41.754,15.883 L46.836,24.781" id="Fill-5"></path>
                    <path d="M35.508,27.488 C35.758,27.805 36.129,27.965 36.5,27.965 C36.781,27.965 37.059,27.875 37.293,27.688 C37.844,27.25 37.93,26.449 37.492,25.902 L32.406,19.547 C31.973,18.996 31.168,18.91 30.621,19.348 C30.074,19.785 29.984,20.586 30.422,21.133 L35.508,27.488" id="Fill-6"></path>
                    <path d="M25.539,40.398 C25.77,40.586 26.051,40.68 26.332,40.68 C26.703,40.68 27.07,40.516 27.324,40.203 C27.762,39.652 27.672,38.852 27.125,38.414 L20.77,33.328 C20.223,32.891 19.422,32.98 18.98,33.527 C18.543,34.078 18.633,34.875 19.18,35.316 L25.539,40.398" id="Fill-7"></path>
                    <path d="M9.152,40.496 L15.508,44.309 C15.711,44.434 15.938,44.492 16.16,44.492 C16.594,44.492 17.012,44.273 17.25,43.875 C17.613,43.273 17.418,42.492 16.816,42.133 L10.461,38.316 C9.855,37.957 9.074,38.152 8.715,38.754 C8.352,39.355 8.551,40.137 9.152,40.496" id="Fill-8"></path>
                    <path d="M26.609,46.242 C26.172,46.789 26.258,47.59 26.809,48.027 L33.164,53.113 C33.398,53.297 33.68,53.391 33.957,53.391 C34.332,53.391 34.699,53.227 34.949,52.914 C35.391,52.363 35.301,51.562 34.754,51.125 L28.395,46.043 C27.848,45.605 27.047,45.691 26.609,46.242" id="Fill-9"></path>
                    <path d="M26.703,28.34 C26.207,28.836 26.207,29.641 26.703,30.137 L40.688,44.117 C40.934,44.367 41.258,44.492 41.586,44.492 C41.91,44.492 42.234,44.367 42.484,44.117 C42.98,43.621 42.98,42.82 42.484,42.32 L28.5,28.34 C28.004,27.84 27.199,27.84 26.703,28.34" id="Fill-10"></path>
                    <path d="M17.434,15.254 C18.133,15.254 18.703,14.684 18.703,13.984 C18.703,13.281 18.133,12.711 17.434,12.711 C16.73,12.711 16.16,13.281 16.16,13.984 C16.16,14.684 16.73,15.254 17.434,15.254" id="Fill-11"></path>
                    <path d="M36.5,16.527 C37.203,16.527 37.77,15.957 37.77,15.254 C37.77,14.551 37.203,13.984 36.5,13.984 C35.797,13.984 35.23,14.551 35.23,15.254 C35.23,15.957 35.797,16.527 36.5,16.527" id="Fill-12"></path>
                    <path d="M54.297,30.508 C54.297,29.809 53.727,29.238 53.027,29.238 C52.324,29.238 51.754,29.809 51.754,30.508 C51.754,31.211 52.324,31.781 53.027,31.781 C53.727,31.781 54.297,31.211 54.297,30.508" id="Fill-13"></path>
                    <path d="M39.043,34.32 C39.742,34.32 40.312,33.754 40.312,33.051 C40.312,32.348 39.742,31.781 39.043,31.781 C38.34,31.781 37.77,32.348 37.77,33.051 C37.77,33.754 38.34,34.32 39.043,34.32" id="Fill-14"></path>
                    <path d="M17.434,27.965 C18.133,27.965 18.703,27.398 18.703,26.695 C18.703,25.992 18.133,25.422 17.434,25.422 C16.73,25.422 16.16,25.992 16.16,26.695 C16.16,27.398 16.73,27.965 17.434,27.965" id="Fill-15"></path>
                    <path d="M3.449,29.238 C4.152,29.238 4.719,28.668 4.719,27.965 C4.719,27.266 4.152,26.695 3.449,26.695 C2.746,26.695 2.18,27.266 2.18,27.965 C2.18,28.668 2.746,29.238 3.449,29.238" id="Fill-16"></path>
                    <path d="M26.332,10.168 C27.031,10.168 27.602,9.602 27.602,8.898 C27.602,8.195 27.031,7.629 26.332,7.629 C25.629,7.629 25.059,8.195 25.059,8.898 C25.059,9.602 25.629,10.168 26.332,10.168" id="Fill-17"></path>
                    <path d="M33.957,41.949 C33.957,41.246 33.387,40.68 32.688,40.68 C31.984,40.68 31.414,41.246 31.414,41.949 C31.414,42.652 31.984,43.219 32.688,43.219 C33.387,43.219 33.957,42.652 33.957,41.949" id="Fill-18"></path>
                    <path d="M19.973,50.848 C19.973,51.551 20.543,52.117 21.246,52.117 C21.949,52.117 22.516,51.551 22.516,50.848 C22.516,50.145 21.949,49.578 21.246,49.578 C20.543,49.578 19.973,50.145 19.973,50.848" id="Fill-19"></path>
                    <path d="M5.992,48.305 C6.691,48.305 7.262,47.734 7.262,47.035 C7.262,46.332 6.691,45.762 5.992,45.762 C5.289,45.762 4.719,46.332 4.719,47.035 C4.719,47.734 5.289,48.305 5.992,48.305" id="Fill-20"></path>
                </g>
            </g>
        </g>
    </g>
</svg>