<?xml version="1.0" encoding="UTF-8" standalone="no"?>
<!-- Created with Inkscape (http://www.inkscape.org/) -->

<svg
   xmlns:dc="http://purl.org/dc/elements/1.1/"
   xmlns:cc="http://creativecommons.org/ns#"
   xmlns:rdf="http://www.w3.org/1999/02/22-rdf-syntax-ns#"
   xmlns:svg="http://www.w3.org/2000/svg"
   xmlns="http://www.w3.org/2000/svg"
   xmlns:sodipodi="http://sodipodi.sourceforge.net/DTD/sodipodi-0.dtd"
   xmlns:inkscape="http://www.inkscape.org/namespaces/inkscape"
   width="209.34972mm"
   height="284.37228mm"
   viewBox="0 0 741.79035 1007.6184"
   id="svg2"
   version="1.1"
   inkscape:version="0.91 r13725"
   sodipodi:docname="snoozit-moon-white.svg">
  <defs
     id="defs4">
    <clipPath
       id="clipPath3354"
       clipPathUnits="userSpaceOnUse">
      <path
         inkscape:connector-curvature="0"
         id="path3356"
         d="m 0,1024 1024,0 L 1024,0 0,0 0,1024 Z" />
    </clipPath>
  </defs>
  <sodipodi:namedview
     id="base"
     pagecolor="#ffffff"
     bordercolor="#666666"
     borderopacity="1.0"
     inkscape:pageopacity="0.0"
     inkscape:pageshadow="2"
     inkscape:zoom="0.35"
     inkscape:cx="-711.66035"
     inkscape:cy="26.594524"
     inkscape:document-units="px"
     inkscape:current-layer="layer1"
     showgrid="false"
     inkscape:window-width="1843"
     inkscape:window-height="1057"
     inkscape:window-x="-8"
     inkscape:window-y="-8"
     inkscape:window-maximized="1"
     fit-margin-top="0"
     fit-margin-left="0"
     fit-margin-right="0"
     fit-margin-bottom="0" />
  <metadata
     id="metadata7">
    <rdf:RDF>
      <cc:Work
         rdf:about="">
        <dc:format>image/svg+xml</dc:format>
        <dc:type
           rdf:resource="http://purl.org/dc/dcmitype/StillImage" />
        <dc:title></dc:title>
      </cc:Work>
    </rdf:RDF>
  </metadata>
  <g
     inkscape:label="Layer 1"
     inkscape:groupmode="layer"
     id="layer1"
     transform="translate(213.13855,190.40421)">
    <g
       id="g3377"
       inkscape:label="snooze_lune"
       transform="matrix(1.25,0,0,-1.25,-220.61375,1145.6051)">
      <path
         d="M 0.982,2.903 1024,2.903 1024,1024 0.982,1024 0.982,2.903 Z"
         style="fill:none;fill-opacity:1;fill-rule:nonzero;stroke:none"
         id="path3379"
         inkscape:connector-curvature="0" />
      <g
         id="g3383">
        <g
           id="g3385"
           clip-path="url(#clipPath3354)">
          <g
             id="g3387"
             transform="translate(534.3357,124.4715)" />
          <g
             id="g3391"
             transform="translate(795.8365,434.2011)" />
        </g>
      </g>
    </g>
    <path
       d="m 163.41213,791.00476 -11.3125,0 0,-257.67753 11.3125,0 0,257.67753 z"
       style="fill:#ffffff;fill-opacity:1;fill-rule:nonzero;stroke:none"
       id="path3381"
       inkscape:connector-curvature="0" />
    <path
       d="m 183.96674,791.0042 c 0,14.475 -11.73501,26.21001 -26.21001,26.21001 -14.475,0 -26.2112,-11.73501 -26.2112,-26.21001 0,-14.475 11.7362,-26.21127 26.2112,-26.21127 14.475,0 26.21001,11.73627 26.21001,26.21127"
       style="fill:#ffffff;fill-opacity:1;fill-rule:nonzero;stroke:none"
       id="path3389"
       inkscape:connector-curvature="0" />
    <path
       d="m 510.84278,403.84214 c -25.70371,5.8175 -52.47371,8.7025 -79.99621,8.29125 C 247.55524,409.56589 99.859025,260.72211 102.23903,80.998337 c 1.3162,-98.868769 47.2825,-186.877537 118.77371,-245.882547 9.9525,-8.245 4.5338,-24.2425 -8.4562,-24.9225 -7.2838,-0.41 -14.6288,-0.5975 -22.0088,-0.5975 -222.95503,0 -403.68635,177.201288 -403.68635,395.82758 0,218.48627 181.89262,396.38004 404.71515,395.8288 139.46751,-0.31625 262.30753,-70.0525 334.58874,-175.78379 7.2838,-10.6725 -2.5237,-24.51125 -15.3225,-21.62625"
       style="fill:#f7d50a;fill-opacity:1;fill-rule:nonzero;stroke:none"
       id="path3393"
       inkscape:connector-curvature="0" />
  </g>
</svg>
