<?xml version="1.0" encoding="UTF-8" standalone="no"?>
<svg width="49px" height="68px" viewBox="0 0 49 68" version="1.1" xmlns="http://www.w3.org/2000/svg" xmlns:xlink="http://www.w3.org/1999/xlink">
    <!-- Generator: sketchtool 40.3 (33839) - http://www.bohemiancoding.com/sketch -->
    <title>A1172698-34BD-4247-9D27-15F649910A28</title>
    <desc>Created with sketchtool.</desc>
    <defs></defs>
    <g id="Page-3" stroke="none" stroke-width="1" fill="none" fill-rule="evenodd">
        <g id="Landing-Page" transform="translate(-1121.000000, -1073.000000)" fill="#F7D509">
            <g id="Bloc-2---Highlight" transform="translate(312.000000, 814.000000)">
                <path d="M800.0096,282.042933 L804.9192,282.042933 C805.295467,282.042933 805.5788,282.326267 805.5788,282.702533 C805.5788,283.0788 805.295467,283.362133 804.9192,283.362133 L800.0096,283.362133 C799.633333,283.362133 799.35,283.0788 799.35,282.702533 C799.35,282.321733 799.633333,282.042933 800.0096,282.042933 L800.0096,282.042933 Z M804.9192,284.026267 L800.0096,284.026267 C799.633333,284.026267 799.35,284.3096 799.35,284.685867 C799.35,285.062133 799.633333,285.345467 800.0096,285.345467 L804.9192,285.345467 C805.295467,285.345467 805.5788,285.062133 805.5788,284.685867 C805.5788,284.305067 805.202533,284.026267 804.9192,284.026267 L804.9192,284.026267 Z M804.9192,285.916667 L800.0096,285.916667 C799.633333,285.916667 799.35,286.2 799.35,286.576267 C799.35,286.952533 799.633333,287.235867 800.0096,287.235867 L804.9192,287.235867 C805.295467,287.235867 805.5788,286.952533 805.5788,286.576267 C805.485867,286.2 805.202533,285.916667 804.9192,285.916667 L804.9192,285.916667 Z M821.9192,309.907067 L820.4096,310.283333 C820.316667,310.283333 814.65,312.7404 813.135867,315.476267 C812.7596,316.233333 812.662133,316.985867 812.945467,317.933333 L813.512133,319.35 L812.1884,318.5 C812.1884,318.5 807.562133,315.383333 804.5384,316.516667 C803.6884,316.892933 803.0288,317.557067 802.648,318.5 L802.4576,318.973733 L801.992933,318.783333 C801.802533,318.6904 801.7096,318.592933 801.235867,318.123733 C800.6692,317.557067 799.6288,316.614133 798.3096,315.666667 L798.3096,327 L773,327 L773,323.316667 C773.092933,320.0096 775.833333,317.366667 779.042933,317.366667 L779.135867,317.366667 L779.135867,290.166667 C779.135867,288.183333 779.702533,286.3904 780.742933,284.783333 C777.816667,283.083333 775.642933,280.533333 774.5096,277.416667 C773.283333,274.016667 773.4692,270.333333 775.076267,267.026267 C777.342933,262.4 781.9692,259.566667 787.2596,259.566667 C789.433333,259.566667 791.5096,260.0404 793.4,260.983333 C796.707067,262.5904 799.257067,265.423733 800.483333,268.823733 C801.2404,270.997467 801.426267,273.264133 801.142933,275.5308 L805.676267,275.5308 C807,275.5308 808.035867,276.5712 808.035867,277.8904 L808.035867,298.007067 C812.095467,300.273733 816.1596,302.257067 819.5596,303.297467 L821.0692,303.673733 L819.652533,304.2404 C819.652533,304.2404 817.292933,305.183333 815.402533,306.6 C817.102533,307.6404 818.7096,308.583333 820.2192,309.242933 L821.9192,309.907067 Z M807.85,299.042933 L807.85,301.216667 C810.023733,302.916667 812.2904,304.523733 814.557067,305.9404 C815.783333,304.997467 817.107067,304.2404 818.05,303.766667 C814.933333,302.726267 811.435867,301.026267 807.85,299.042933 L807.85,299.042933 Z M800.766667,276.757067 C800.576267,277.607067 800.292933,278.364133 799.916667,279.214133 C799.5404,280.064133 798.973733,280.914133 798.407067,281.6712 L798.407067,293.473733 C800.766667,295.55 803.697467,298.007067 806.716667,300.366667 L806.716667,277.792933 C806.716667,277.226267 806.242933,276.752533 805.676267,276.752533 L800.766667,276.752533 L800.766667,276.757067 Z M797.083333,299.233333 L791.416667,288.9404 C791.226267,288.564133 790.942933,288.2808 790.566667,287.997467 C789.526267,287.523733 788.583333,287.4308 787.826267,287.523733 C787.635867,287.616667 787.542933,287.616667 787.352533,287.714133 C785.935867,288.4712 785.3692,290.357067 786.2192,291.773733 L791.885867,302.066667 L797.083333,299.233333 Z M796.4192,301.5 L793.776267,303.0096 C794.816667,304.235867 796.4192,304.7096 797.933333,304.235867 L796.4192,301.5 Z M797.083333,292.242933 L797.083333,290.166667 C797.083333,288.0904 796.326267,286.107067 795.1,284.5 C793.683333,285.442933 791.983333,286.107067 790.283333,286.3904 C790.942933,286.673733 791.607067,287.05 792.076267,287.616667 C792.55,288.0904 794.435867,289.883333 797.083333,292.242933 L797.083333,292.242933 Z M797.083333,282.892933 C796.8,283.176267 796.423733,283.4596 796.1404,283.742933 C796.516667,284.216667 796.8,284.685867 797.083333,285.252533 L797.083333,282.892933 Z M776.966667,273.357067 C778.2904,273.357067 780.273733,272.6 781.783333,271.466667 C779.9904,270.616667 778.666667,269.483333 780.273733,269.0096 C782.916667,268.252533 782.916667,266.933333 782.823733,266.083333 C781.597467,264.666667 779.614133,264.192933 778.95,264.007067 C777.9096,265.047467 774.607067,269.2 775.926267,272.9808 C776.0192,273.2596 776.776267,273.357067 776.966667,273.357067 L776.966667,273.357067 Z M782.066667,284.026267 C783.8596,284.876267 785.75,285.35 787.6404,285.35 C792.364133,285.35 796.614133,282.707067 798.6904,278.55 C800.107067,275.623733 800.297467,272.316667 799.164133,269.2 C798.0308,266.083333 795.764133,263.533333 792.7404,262.116667 C790.947467,261.266667 789.057067,260.792933 787.166667,260.792933 C785.5596,260.792933 783.957067,261.076267 782.5404,261.642933 C782.823733,261.735867 783.014133,261.833333 783.014133,261.833333 C788.587867,264.573733 790.097467,267.407067 790.473733,268.442933 L790.473733,268.535867 C790.566667,268.726267 790.566667,268.8192 790.566667,268.8192 C790.757067,269.4788 790.942933,271.085867 789.623733,273.7288 C787.264133,278.545467 782.066667,280.905067 777.157067,279.8692 C778.383333,281.666667 780.083333,283.083333 782.066667,284.026267 L782.066667,284.026267 Z M777.152533,324.2596 L774.5096,324.2596 L774.5096,325.866667 L777.152533,325.866667 L777.152533,324.2596 Z M777.342933,323.033333 C777.533333,321.523733 778.1,320.2 779.135867,319.257067 C779.326267,319.066667 779.512133,318.8808 779.702533,318.783333 C779.512133,318.783333 779.326267,318.6904 779.135867,318.6904 C779.135867,318.6904 779.135867,318.6904 779.042933,318.6904 C776.585867,318.6904 774.602533,320.5808 774.3192,323.033333 L777.342933,323.033333 Z M779.135867,321.333333 C778.852533,321.807067 778.662133,322.373733 778.662133,323.033333 L785.085867,323.033333 C785.085867,323.223733 785.085867,323.033333 785.085867,323.033333 L788.1096,323.033333 C787.9192,321.2404 786.692933,319.633333 785.085867,318.973733 C784.802533,318.8808 784.5192,318.783333 784.142933,318.6904 C783.8596,318.597467 783.576267,318.597467 783.292933,318.597467 L783.2,318.597467 C783.0096,318.597467 782.823733,318.597467 782.633333,318.6904 C782.066667,318.783333 781.592933,318.973733 781.123733,319.164133 C780.8404,319.354533 780.557067,319.5404 780.273733,319.7308 C779.892933,320.2 779.4192,320.673733 779.135867,321.333333 L779.135867,321.333333 Z M797.083333,324.2596 L778.5692,324.2596 L778.5692,325.866667 L797.0788,325.866667 L797.0788,324.2596 L797.083333,324.2596 Z M797.083333,314.9096 C796.707067,314.7192 796.423733,314.533333 796.042933,314.342933 C793.8692,313.4 791.792933,313.116667 789.8096,313.585867 L789.242933,313.6788 L789.15,313.116667 C789.15,312.926267 786.883333,297.342933 784.9,291.866667 C784.807067,291.773733 784.807067,291.583333 784.7096,291.4904 C784.7096,291.397467 784.616667,291.3 784.616667,291.207067 L784.616667,291.0212 L784.616667,290.8308 C784.426267,289.1308 785.183333,287.4308 786.7904,286.5808 C786.883333,286.5808 786.883333,286.5808 786.9808,286.487867 C785.187867,286.394933 783.487867,286.014133 781.8808,285.2616 C780.937867,286.678267 780.464133,288.378267 780.464133,290.078267 L780.464133,317.468667 C780.747467,317.5616 781.0308,317.659067 781.314133,317.752 C781.973733,317.468667 782.637867,317.375733 783.3904,317.375733 L783.3904,307.2596 L785.183333,307.2596 L785.183333,317.65 C787.45,318.407067 789.242933,320.483333 789.433333,323.033333 L797.083333,323.033333 L797.083333,314.9096 Z M818.9,309.623733 C810.307067,305.2808 798.876267,295.364133 793.873733,290.6404 L798.973733,299.8 L797.8404,300.366667 L800.297467,304.9 L799.5404,305.276267 C796.897467,306.6 793.7808,305.75 792.173733,303.483333 L791.514133,303.8596 L787.0692,296.023733 C788.485867,301.973733 789.712133,310.283333 789.995467,312.457067 C792.071733,312.0808 794.245467,312.364133 796.4192,313.4 C799.062133,314.626267 801.045467,316.516667 801.992933,317.4596 L802.085867,317.552533 C802.652533,316.6096 803.312133,315.945467 804.2596,315.5692 C806.8096,314.5288 810.116667,316.135867 811.816667,316.985867 C811.816667,316.326267 811.9096,315.5692 812.2904,314.9096 C813.516667,312.642933 817.0096,310.283333 818.9,309.623733 L818.9,309.623733 Z" id="Page-1" transform="translate(815.500000, 284.500000) scale(-1, 1) translate(-815.500000, -284.500000) "></path>
            </g>
        </g>
    </g>
</svg>