<?xml version="1.0" encoding="UTF-8" standalone="no"?>
<!-- Created with Inkscape (http://www.inkscape.org/) -->

<svg
   xmlns:dc="http://purl.org/dc/elements/1.1/"
   xmlns:cc="http://creativecommons.org/ns#"
   xmlns:rdf="http://www.w3.org/1999/02/22-rdf-syntax-ns#"
   xmlns:svg="http://www.w3.org/2000/svg"
   xmlns="http://www.w3.org/2000/svg"
   xmlns:sodipodi="http://sodipodi.sourceforge.net/DTD/sodipodi-0.dtd"
   xmlns:inkscape="http://www.inkscape.org/namespaces/inkscape"
   width="209.34966mm"
   height="223.42332mm"
   viewBox="0 0 741.79013 791.65747"
   id="svg2"
   version="1.1"
   inkscape:version="0.91 r13725"
   sodipodi:docname="snoozit-moon -only.svg">
  <defs
     id="defs4">
    <clipPath
       id="clipPath3354"
       clipPathUnits="userSpaceOnUse">
      <path
         inkscape:connector-curvature="0"
         id="path3356"
         d="m 0,1024 1024,0 L 1024,0 0,0 0,1024 Z" />
    </clipPath>
  </defs>
  <sodipodi:namedview
     id="base"
     pagecolor="#ffffff"
     bordercolor="#666666"
     borderopacity="1.0"
     inkscape:pageopacity="0.0"
     inkscape:pageshadow="2"
     inkscape:zoom="0.35"
     inkscape:cx="1992.4242"
     inkscape:cy="-689.95732"
     inkscape:document-units="px"
     inkscape:current-layer="layer1"
     showgrid="false"
     inkscape:window-width="1843"
     inkscape:window-height="1057"
     inkscape:window-x="-8"
     inkscape:window-y="-8"
     inkscape:window-maximized="1"
     fit-margin-top="0"
     fit-margin-left="0"
     fit-margin-right="0"
     fit-margin-bottom="0" />
  <metadata
     id="metadata7">
    <rdf:RDF>
      <cc:Work
         rdf:about="">
        <dc:format>image/svg+xml</dc:format>
        <dc:type
           rdf:resource="http://purl.org/dc/dcmitype/StillImage" />
        <dc:title></dc:title>
      </cc:Work>
    </rdf:RDF>
  </metadata>
  <g
     inkscape:label="Layer 1"
     inkscape:groupmode="layer"
     id="layer1"
     transform="translate(2044.5672,690.99528)">
    <path
       d="m -1320.5861,-96.749013 c -25.7037,5.8175 -52.4737,8.7025 -79.9962,8.29125 -183.2913,-2.5675 -330.9875,-151.411257 -328.6075,-331.135007 1.3162,-98.86875 47.2825,-186.87751 118.7737,-245.88251 9.9525,-8.245 4.5338,-24.2425 -8.4562,-24.9225 -7.2838,-0.41 -14.6288,-0.5975 -22.0088,-0.5975 -222.955,0 -403.6862,177.20126 -403.6862,395.82752 0,218.486247 181.8925,396.38001 404.715,395.82876 139.4675,-0.31625 262.3075,-70.052503 334.5887,-175.783763 7.2838,-10.6725 -2.5237,-24.51125 -15.3225,-21.62625"
       style="fill:#f7d50a;fill-opacity:1;fill-rule:nonzero;stroke:none"
       id="path3393"
       inkscape:connector-curvature="0" />
  </g>
</svg>
