<?xml version="1.0" encoding="UTF-8" standalone="no"?>
<svg width="53px" height="55px" viewBox="0 0 53 55" version="1.1" xmlns="http://www.w3.org/2000/svg" xmlns:xlink="http://www.w3.org/1999/xlink">
    <!-- Generator: sketchtool 40.3 (33839) - http://www.bohemiancoding.com/sketch -->
    <title>2F5A3076-3384-4EF4-84B2-468D7EFE8880</title>
    <desc>Created with sketchtool.</desc>
    <defs></defs>
    <g id="Page-3" stroke="none" stroke-width="1" fill="none" fill-rule="evenodd">
        <g id="Landing-Page" transform="translate(-774.000000, -1077.000000)" fill="#F7D509">
            <g id="Ciseaux" transform="translate(774.000000, 1077.000000)">
                <path d="M7.99964446,41 C5.24205362,41 3,43.2415019 3,46 C3,48.7584981 5.24205362,51 7.99964446,51 C10.7579464,51 13,48.7584981 13,46 C13,43.2415019 10.7579464,41 7.99964446,41 L7.99964446,41 Z M7.99964446,49.3338074 C6.16148759,49.3338074 4.66678518,47.8389987 4.66678518,46 C4.66678518,44.1638458 6.16148759,42.6669037 7.99964446,42.6669037 C9.83851241,42.6669037 11.3332148,44.1610013 11.3332148,46 C11.3332148,47.8389987 9.83851241,49.3338074 7.99964446,49.3338074 L7.99964446,49.3338074 Z" id="Fill-1"></path>
                <path d="M44.1671692,37.8122592 C42.735735,37.8122592 41.387217,38.1532567 40.1887018,38.7435857 L31.5413016,30.3301139 L30.292283,31.5452384 L38.6668136,39.6917787 C38.1482108,40.0958424 37.6801115,40.5512391 37.2677921,41.0550354 C35.9901297,39.8061779 32.1767408,36.0764719 27.7723859,31.7740367 L41.2575663,18.6547994 C48.9838434,11.1381877 47.7499004,1.16932738 47.6911054,0.748397133 C47.6473859,0.424266172 47.4174821,0.152201497 47.0993856,0.0458689423 C46.7843042,-0.0567969729 46.4285186,0.0202024635 46.1895693,0.252667428 L32.9395693,13.1431064 L34.1878342,14.3574975 L46.0161992,2.85084841 C45.9807714,5.97335889 45.2058824,12.3782453 40.0062863,17.4396749 L26.5263824,30.5567123 C21.7149846,25.85608 16.4354875,20.7022511 13.0819064,17.4396749 C7.89663215,12.3951119 7.11646661,5.98142549 7.07500853,2.85378172 L18.8558852,14.3149645 L20.1049039,13.0998401 L6.89862328,0.252667428 C6.66042781,0.0202024635 6.30690352,-0.0597302847 5.98880703,0.0458689423 C5.67071055,0.152201497 5.44080669,0.424266172 5.39708727,0.748397133 C5.34130732,1.16932738 4.10434919,11.1381877 11.8306264,18.6547994 C15.1872227,21.9203088 20.4637046,27.0704711 25.2751024,31.7711034 L15.735223,41.0550354 C15.3229036,40.5512391 14.8517892,40.0958424 14.3331864,39.6917787 L22.707717,31.5452384 L21.4586984,30.3301139 L12.8112982,38.7435857 C11.612783,38.1532567 10.264265,37.8122592 8.83283081,37.8122592 C3.96339174,37.8122592 0,41.6680976 0,46.4061296 C0,51.1441616 3.96339174,55 8.83283081,55 C13.7030237,55 17.6664154,51.1441616 17.6664154,46.4061296 C17.6664154,45.0142731 17.3159062,43.7023494 16.7098646,42.5363579 L26.5233673,32.9884278 C31.3113978,37.6633936 35.3984099,41.662231 36.2901354,42.5363579 C35.6840938,43.7023494 35.3335846,45.0142731 35.3335846,46.4061296 C35.3335846,51.1441616 39.2969763,55 44.1671692,55 C49.0366083,55 53,51.1441616 53,46.4061296 C53,41.6680976 49.0366083,37.8122592 44.1671692,37.8122592 L44.1671692,37.8122592 Z M8.83283081,53.2810792 C4.93803334,53.2810792 1.76686768,50.1959685 1.76686768,46.4061296 C1.76686768,42.6162907 4.93803334,39.5311799 8.83283081,39.5311799 C12.7283821,39.5311799 15.9003015,42.6162907 15.9003015,46.4061296 C15.9003015,50.1959685 12.7283821,53.2810792 8.83283081,53.2810792 L8.83283081,53.2810792 Z M44.1671692,53.2810792 C40.2716179,53.2810792 37.0996985,50.1959685 37.0996985,46.4061296 C37.0996985,42.6162907 40.2716179,39.5311799 44.1671692,39.5311799 C48.0619667,39.5311799 51.2331323,42.6162907 51.2331323,46.4061296 C51.2331323,50.1959685 48.0619667,53.2810792 44.1671692,53.2810792 L44.1671692,53.2810792 Z" id="Fill-2"></path>
                <path d="M44.0003555,41 C41.2420536,41 39,43.2415019 39,46 C39,48.7584981 41.2420536,51 44.0003555,51 C46.7579464,51 49,48.7584981 49,46 C49,43.2415019 46.7579464,41 44.0003555,41 L44.0003555,41 Z M44.0003555,49.3338074 C42.1614876,49.3338074 40.6667852,47.8389987 40.6667852,46 C40.6667852,44.1638458 42.1614876,42.6669037 44.0003555,42.6669037 C45.8385124,42.6669037 47.3332148,44.1610013 47.3332148,46 C47.3332148,47.8389987 45.8385124,49.3338074 44.0003555,49.3338074 L44.0003555,49.3338074 Z" id="Fill-3"></path>
                <path d="M26.5,19.6251244 C25.0115207,19.6251244 23.7995392,18.4468426 23.7995392,17.0004978 L22,17.0004978 C22,19.1121462 23.547619,20.8795691 25.5998464,21.2850235 L25.5998464,24 L27.4001536,24 L27.4001536,21.2850235 C29.452381,20.8795691 31,19.1121462 31,17.0004978 C31,14.5707581 27.2887865,12.8847248 26.8686636,12.7010383 C25.6298003,12.1611791 23.7995392,10.9276419 23.7995392,9.9995022 C23.7995392,8.55315745 25.0115207,7.37487555 26.5,7.37487555 C27.9884793,7.37487555 29.2004608,8.55315745 29.2004608,9.9995022 L31,9.9995022 C31,7.88785379 29.452381,6.12043095 27.4001536,5.71497653 L27.4001536,3 L25.5998464,3 L25.5998464,5.71497653 C23.547619,6.12043095 22,7.88785379 22,9.9995022 C22,12.4292419 25.7112135,14.1152752 26.1313364,14.2989617 C27.3701997,14.8388209 29.2004608,16.0723581 29.2004608,17.0004978 C29.2004608,18.4468426 27.9884793,19.6251244 26.5,19.6251244 L26.5,19.6251244 Z" id="Fill-4"></path>
            </g>
        </g>
    </g>
</svg>